<svg width="100" height="100" viewBox="0 0 100 100" fill="none" xmlns="http://www.w3.org/2000/svg">
<g clip-path="url(#clip0_399_30)">
<path d="M61.5117 16.3332C65.7524 15.1336 70.2522 15.2363 74.4287 16.6223L74.832 16.7599C78.9872 18.2288 82.6029 20.9103 85.2129 24.4533L85.4619 24.799C88.0887 28.5133 89.4996 32.9509 89.5 37.5002L89.4922 38.1555C89.1854 51.8926 79.2923 63.4248 70.25 71.2199C64.4999 76.1329 58.2575 80.4384 51.6221 84.0676L51.6074 84.0754H51.6006L51.4912 84.133C51.0319 84.3763 50.5198 84.5043 50 84.5051L49.8057 84.4992C49.4176 84.4761 49.037 84.3825 48.6826 84.2228L48.5078 84.1379L48.4971 84.131L48.4854 84.1242L48.4727 84.1174L48.3838 84.0705C46.9111 83.2692 45.4581 82.4326 44.0264 81.5607L42.6016 80.6769L41.7588 80.1408C37.838 77.6237 34.0811 74.8601 30.5117 71.8654L29.75 71.2199C20.5691 63.301 10.5001 51.5257 10.5 37.5002L10.5039 37.0734C10.5869 32.8158 11.9039 28.6734 14.2949 25.1496L14.5381 24.799C17.0829 21.2007 20.6476 18.4521 24.7676 16.9055L25.168 16.7599C29.3231 15.2912 33.8203 15.1053 38.0771 16.2209L38.4883 16.3332C42.8657 17.5715 46.752 20.1358 49.6113 23.674L50 24.1555L50.3887 23.674C53.1587 20.2463 56.8922 17.7319 61.1025 16.4523L61.5117 16.3332Z" fill="#8E80FF" stroke="#8E80FF"/>
</g>
<defs>
<clipPath id="clip0_399_30">
<rect width="100" height="100" fill="white"/>
</clipPath>
</defs>
</svg>
