<svg width="100" height="100" viewBox="0 0 100 100" fill="none" xmlns="http://www.w3.org/2000/svg">
<g clip-path="url(#clip0_399_30)">
<path d="M61.5117 16.3332C65.8892 15.0949 70.5429 15.2438 74.832 16.7599C79.1212 18.2762 82.8351 21.0848 85.4619 24.799C88.0887 28.5133 89.4996 32.9509 89.5 37.5002L89.4922 38.1555C89.1854 51.8926 79.2923 63.4248 70.25 71.2199C64.4999 76.1329 58.2575 80.4384 51.6221 84.0676L51.6074 84.0754H51.6006L51.4912 84.133C51.0319 84.3763 50.5198 84.5043 50 84.5051C49.5451 84.5057 49.096 84.4091 48.6826 84.2228L48.5078 84.1379L48.4971 84.131L48.4854 84.1242L48.4727 84.1174L48.3838 84.0705C46.9111 83.2692 45.4581 82.4326 44.0264 81.5607L42.6016 80.6769L41.7588 80.1408C37.838 77.6237 34.0811 74.8601 30.5117 71.8654L29.75 71.2199C20.5691 63.301 10.5001 51.5257 10.5 37.5002L10.5039 37.0734C10.5896 32.6738 11.9935 28.3971 14.5381 24.799C17.1649 21.0848 20.8788 18.2762 25.168 16.7599C29.4571 15.2438 34.1108 15.0949 38.4883 16.3332C42.8657 17.5715 46.752 20.1358 49.6113 23.674L50 24.1555L50.3887 23.674C53.248 20.1358 57.1343 17.5715 61.5117 16.3332Z" fill="#8E80FF" stroke="#8E80FF"/>
</g>
<defs>
<clipPath id="clip0_399_30">
<rect width="100" height="100" fill="white"/>
</clipPath>
</defs>
</svg>
