<svg width="100" height="100" viewBox="0 0 100 100" fill="none" xmlns="http://www.w3.org/2000/svg">
<g clip-path="url(#clip0_399_24)">
<path d="M62.4648 19.7004C66.1458 18.6592 70.0593 18.7848 73.666 20.0598C77.2728 21.3348 80.3956 23.6971 82.6045 26.8205C84.8132 29.9438 85.9996 33.6748 86 37.5002L85.9932 38.0793C85.7193 50.2246 76.885 60.8764 67.9766 68.5588C62.4532 73.2781 56.4598 77.417 50.0918 80.9133L49.9971 80.9631C48.5948 80.1989 47.2106 79.402 45.8467 78.5715L44.4707 77.718L44.4648 77.714L43.6494 77.1955C39.5826 74.5847 35.6979 71.699 32.0234 68.5588H32.0225C22.9767 60.7534 14.0001 49.8849 14 37.5002L14.0137 36.7844C14.1524 33.2109 15.3248 29.7486 17.3955 26.8205C19.6044 23.6971 22.7272 21.3348 26.334 20.0598C29.9407 18.7848 33.8542 18.6592 37.5352 19.7004C41.2162 20.7416 44.4842 22.8988 46.8887 25.8742L50 29.7238L53.1113 25.8742C55.5158 22.8988 58.7838 20.7416 62.4648 19.7004Z" stroke="white" stroke-width="8"/>
</g>
<defs>
<clipPath id="clip0_399_24">
<rect width="100" height="100" fill="white"/>
</clipPath>
</defs>
</svg>
