<svg width="1195" height="200" viewBox="0 0 1195 200" fill="none" xmlns="http://www.w3.org/2000/svg">
<path d="M67.893 87.2C67.893 92.32 68.661 97.0987 70.197 101.536C71.8183 105.888 74.1223 109.643 77.109 112.8C80.181 115.957 83.893 118.432 88.245 120.224C92.597 122.016 97.5037 122.912 102.965 122.912C109.536 122.912 114.912 121.845 119.093 119.712C123.36 117.579 126.858 114.72 129.589 111.136L136.373 118.944C133.301 122.955 129.077 126.368 123.701 129.184C118.41 131.915 111.498 133.28 102.965 133.28C95.8823 133.28 89.4823 132.171 83.765 129.952C78.133 127.648 73.3117 124.491 69.301 120.48C65.2903 116.384 62.2183 111.52 60.085 105.888C57.9517 100.171 56.885 93.9413 56.885 87.2C56.885 80.3733 57.9517 74.144 60.085 68.512C62.2183 62.88 65.2903 58.0587 69.301 54.048C73.3117 49.952 78.133 46.7947 83.765 44.576C89.4823 42.272 95.8823 41.12 102.965 41.12C111.498 41.12 118.41 42.528 123.701 45.344C129.077 48.0747 133.301 51.4453 136.373 55.456L129.589 63.264C126.858 59.68 123.36 56.8213 119.093 54.688C114.912 52.4693 109.536 51.36 102.965 51.36C97.5037 51.36 92.597 52.256 88.245 54.048C83.893 55.84 80.181 58.3573 77.109 61.6C74.1223 64.7573 71.8183 68.5547 70.197 72.992C68.661 77.344 67.893 82.08 67.893 87.2ZM142.385 87.2C142.385 80.6293 143.409 74.528 145.457 68.896C147.505 63.264 150.449 58.4 154.289 54.304C158.129 50.208 162.78 47.008 168.241 44.704C173.788 42.3147 180.017 41.12 186.929 41.12C193.841 41.12 200.028 42.3147 205.489 44.704C211.036 47.008 215.729 50.208 219.569 54.304C223.409 58.4 226.353 63.264 228.401 68.896C230.449 74.528 231.473 80.6293 231.473 87.2C231.473 93.7707 230.449 99.872 228.401 105.504C226.353 111.136 223.409 116 219.569 120.096C215.729 124.192 211.036 127.435 205.489 129.824C200.028 132.128 193.841 133.28 186.929 133.28C180.017 133.28 173.788 132.128 168.241 129.824C162.78 127.435 158.129 124.192 154.289 120.096C150.449 116 147.505 111.136 145.457 105.504C143.409 99.872 142.385 93.7707 142.385 87.2ZM153.393 87.2C153.393 92.1493 154.118 96.8 155.569 101.152C157.105 105.419 159.281 109.173 162.097 112.416C164.998 115.659 168.497 118.219 172.593 120.096C176.774 121.973 181.553 122.912 186.929 122.912C192.305 122.912 197.084 121.973 201.265 120.096C205.446 118.219 208.945 115.659 211.761 112.416C214.577 109.173 216.71 105.419 218.161 101.152C219.697 96.8 220.465 92.1493 220.465 87.2C220.465 82.2507 219.697 77.6427 218.161 73.376C216.71 69.024 214.577 65.2267 211.761 61.984C208.945 58.7413 205.446 56.1813 201.265 54.304C197.084 52.4267 192.305 51.488 186.929 51.488C181.553 51.488 176.774 52.4267 172.593 54.304C168.497 56.1813 164.998 58.7413 162.097 61.984C159.281 65.2267 157.105 69.024 155.569 73.376C154.118 77.6427 153.393 82.2507 153.393 87.2ZM310.466 132L254.018 59.424V132H243.01V42.4H254.018L310.466 114.976V42.4H321.474V132H310.466ZM344.018 87.2C344.018 92.32 344.786 97.0987 346.322 101.536C347.943 105.888 350.247 109.643 353.234 112.8C356.221 115.957 359.847 118.432 364.114 120.224C368.466 122.016 373.373 122.912 378.834 122.912C385.49 122.912 390.951 121.845 395.218 119.712C399.485 117.493 402.983 114.635 405.714 111.136L412.498 118.944C410.962 120.907 409.127 122.784 406.994 124.576C404.946 126.283 402.557 127.776 399.826 129.056C397.095 130.336 394.023 131.36 390.61 132.128C387.197 132.896 383.357 133.28 379.09 133.28C372.007 133.28 365.607 132.171 359.89 129.952C354.258 127.648 349.437 124.448 345.426 120.352C341.415 116.256 338.343 111.392 336.21 105.76C334.077 100.128 333.01 93.9413 333.01 87.2C333.01 80.4587 334.077 74.272 336.21 68.64C338.343 63.008 341.415 58.144 345.426 54.048C349.437 49.952 354.258 46.7947 359.89 44.576C365.607 42.272 372.007 41.12 379.09 41.12C383.357 41.12 387.197 41.504 390.61 42.272C394.023 43.04 397.095 44.064 399.826 45.344C402.557 46.624 404.946 48.16 406.994 49.952C409.127 51.6587 410.962 53.4933 412.498 55.456L405.714 63.264C402.983 59.7653 399.485 56.9067 395.218 54.688C390.951 52.4693 385.49 51.36 378.834 51.36C373.373 51.36 368.466 52.256 364.114 54.048C359.847 55.84 356.221 58.3573 353.234 61.6C350.247 64.7573 347.943 68.5547 346.322 72.992C344.786 77.344 344.018 82.08 344.018 87.2ZM423.885 42.4H489.037V52.512H434.893V81.824H479.181V91.936H434.893V121.888H489.037V132H423.885V42.4ZM500.635 42.4H532.891C539.462 42.4 545.051 43.1253 549.659 44.576C554.267 46.0267 558.022 48.032 560.923 50.592C563.824 53.152 565.915 56.224 567.195 59.808C568.56 63.3067 569.243 67.1467 569.243 71.328C569.243 77.6427 567.622 83.2747 564.379 88.224C561.136 93.088 555.803 96.5013 548.379 98.464L571.803 132H558.747L536.603 100.256C536.006 100.341 535.408 100.384 534.811 100.384C534.214 100.384 533.574 100.384 532.891 100.384H511.643V132H500.635V42.4ZM532.891 89.888C542.022 89.888 548.464 88.224 552.219 84.896C556.059 81.568 557.979 77.0453 557.979 71.328C557.979 65.6107 556.059 61.088 552.219 57.76C548.464 54.432 542.022 52.768 532.891 52.768H511.643V89.888H532.891ZM574.498 42.4H661.666V52.512H623.522V132H612.514V52.512H574.498V42.4ZM672.51 42.4H713.598C718.633 42.4 722.899 43.1253 726.398 44.576C729.982 45.9413 732.841 47.7333 734.974 49.952C737.193 52.1707 738.771 54.7307 739.71 57.632C740.734 60.448 741.246 63.264 741.246 66.08C741.246 70.8587 740.094 75.04 737.79 78.624C741.801 80.928 745.043 84.0427 747.518 87.968C750.078 91.8933 751.358 96.8853 751.358 102.944C751.358 107.125 750.718 111.008 749.438 114.592C748.243 118.091 746.153 121.163 743.166 123.808C740.265 126.368 736.339 128.373 731.39 129.824C726.526 131.275 720.425 132 713.086 132H672.51V42.4ZM713.086 72.608C713.257 72.608 713.385 72.6507 713.47 72.736C713.641 72.736 713.811 72.736 713.982 72.736C715.945 72.5653 717.779 72.0107 719.486 71.072C721.193 70.1333 722.046 68.4693 722.046 66.08C722.046 64.8853 721.747 63.904 721.15 63.136C720.638 62.2827 719.955 61.6 719.102 61.088C718.249 60.576 717.267 60.2347 716.158 60.064C715.134 59.808 714.11 59.68 713.086 59.68H691.71V72.608H713.086ZM691.71 90.016V114.72H712.958C715.262 114.72 717.566 114.677 719.87 114.592C722.174 114.421 724.222 113.952 726.014 113.184C727.806 112.416 729.257 111.264 730.366 109.728C731.561 108.107 732.158 105.888 732.158 103.072C732.158 99.8293 731.689 97.3547 730.75 95.648C729.897 93.856 728.617 92.5333 726.91 91.68C725.289 90.8267 723.326 90.3573 721.022 90.272C718.803 90.1013 716.329 90.016 713.598 90.016H691.71ZM805.378 114.72C808.962 114.72 812.205 114.464 815.106 113.952C818.007 113.355 820.482 112.288 822.53 110.752C824.578 109.216 826.157 107.083 827.266 104.352C828.375 101.536 828.93 97.9093 828.93 93.472V42.4H848.13V93.472C848.13 101.237 846.935 107.68 844.546 112.8C842.242 117.92 839.085 122.016 835.074 125.088C831.149 128.075 826.583 130.208 821.378 131.488C816.258 132.683 810.925 133.28 805.378 133.28C799.831 133.28 794.455 132.683 789.25 131.488C784.13 130.208 779.565 128.075 775.554 125.088C771.629 122.016 768.471 117.92 766.082 112.8C763.693 107.68 762.498 101.237 762.498 93.472V42.4H781.698V93.472C781.698 97.9093 782.253 101.536 783.362 104.352C784.471 107.083 786.05 109.216 788.098 110.752C790.146 112.288 792.621 113.355 795.522 113.952C798.423 114.464 801.709 114.72 805.378 114.72ZM859.135 42.4H891.391C908.799 42.4 921.556 46.1547 929.663 53.664C937.855 61.1733 941.951 72.352 941.951 87.2C941.951 102.048 937.855 113.227 929.663 120.736C921.556 128.245 908.799 132 891.391 132H859.135V42.4ZM891.647 114.08C895.914 114.08 899.924 113.824 903.679 113.312C907.519 112.8 910.847 111.605 913.663 109.728C916.479 107.851 918.698 105.12 920.319 101.536C921.94 97.952 922.751 93.1733 922.751 87.2C922.751 81.1413 921.94 76.3627 920.319 72.864C918.698 69.28 916.479 66.592 913.663 64.8C910.847 62.9227 907.562 61.728 903.807 61.216C900.052 60.6187 896.042 60.32 891.775 60.32H878.335V114.08H891.647ZM953.51 42.4H985.766C1003.17 42.4 1015.93 46.1547 1024.04 53.664C1032.23 61.1733 1036.33 72.352 1036.33 87.2C1036.33 102.048 1032.23 113.227 1024.04 120.736C1015.93 128.245 1003.17 132 985.766 132H953.51V42.4ZM986.022 114.08C990.289 114.08 994.299 113.824 998.054 113.312C1001.89 112.8 1005.22 111.605 1008.04 109.728C1010.85 107.851 1013.07 105.12 1014.69 101.536C1016.32 97.952 1017.13 93.1733 1017.13 87.2C1017.13 81.1413 1016.32 76.3627 1014.69 72.864C1013.07 69.28 1010.85 66.592 1008.04 64.8C1005.22 62.9227 1001.94 61.728 998.182 61.216C994.427 60.6187 990.417 60.32 986.15 60.32H972.71V114.08H986.022ZM1086.35 73.376L1115.02 42.4H1140.62L1096.08 90.528V132H1076.88V90.784L1032.08 42.4H1057.68L1086.35 73.376Z" fill="url(#paint0_linear_427_11)"/>
<defs>
<linearGradient id="paint0_linear_427_11" x1="0" y1="100" x2="1195" y2="100" gradientUnits="userSpaceOnUse">
<stop stop-color="#B91BF4"/>
<stop offset="0.326923" stop-color="#6B3AB4"/>
<stop offset="0.663462" stop-color="#3E31AB"/>
<stop offset="1" stop-color="#8E80FF"/>
</linearGradient>
</defs>
</svg>
