<?xml version="1.0" encoding="utf-8"?><!DOCTYPE svg PUBLIC "-//W3C//DTD SVG 1.1//EN" "http://www.w3.org/Graphics/SVG/1.1/DTD/svg11.dtd"><svg version="1.1" id="Contours" xmlns="http://www.w3.org/2000/svg" xmlns:xlink="http://www.w3.org/1999/xlink" x="0px" y="0px" width="1696.459229px" height="1696.459229px" viewBox="-0.000013 0.000058 1696.459229 974.484924" enable-background="new 0 0 1696.459229 1696.459229" xml:space="preserve" stroke="black" fill="none" stroke-linecap='round' stroke-linejoin='round'><path class="selected"  fill="#000000" opacity="1.000000" stroke="none" 
 	d="
M262.239027 861.383173 C254.074537 862.385085 245.789572 862.401518 237.621171 861.432004 C239.313844 860.571004 240.866268 859.435035 242.199043 858.082197 C247.443480 862.626804 256.498064 857.484596 262.239027 861.383173 z"/><path class="selected"  fill="#000000" opacity="1.000000" stroke="none" 
 	d="
M1272.686539 351.936131 C1270.844070 349.792715 1272.171523 346.518173 1273.555594 344.053773 C1274.534200 342.311326 1275.746542 340.392108 1277.707280 340.005718 C1278.901517 344.492436 1276.729580 349.653447 1272.686539 351.936131 z"/><path class="selected"  fill="#000000" opacity="1.000000" stroke="none" 
 	d="
M496.777338 511.917031 C495.050315 512.400757 493.110375 512.054540 491.657300 511.003268 C494.501347 509.130223 498.644386 509.565842 501.036661 511.989458 C501.576726 510.154611 504.306045 509.462198 505.655481 510.817691 C504.327761 514.212811 498.941028 514.957535 496.741956 512.049999 z"/><path class="selected"  fill="#000000" opacity="1.000000" stroke="none" 
 	d="
M1029.879895 88.742913 C1027.964472 88.260847 1027.229355 85.386034 1028.678258 84.043679 C1031.764986 86.292146 1033.610116 90.146205 1033.425986 93.960596 C1031.333296 93.273923 1029.762089 91.225160 1029.641607 89.025988 z"/><path class="selected"  fill="#000000" opacity="1.000000" stroke="none" 
 	d="
M540.544323 205.709577 C539.035727 204.589485 539.681015 201.410710 537.832901 201.071676 C539.402233 198.925757 541.462777 197.141320 543.810909 195.894703 C542.824377 197.785388 543.920123 200.036854 544.129665 202.159123 C544.339207 204.281393 542.256559 206.980865 540.544322 205.709574 z"/><path class="selected"  fill="#000000" opacity="1.000000" stroke="none" 
 	d="
M321.880861 529.980180 C321.362607 527.967152 321.684412 525.751541 322.753931 523.969128 C324.436932 525.645600 326.119934 527.322073 327.802936 528.998547 C326.798759 530.001606 325.794582 531.004665 324.790405 532.007724 C324.104069 530.967798 323.039564 530.183457 321.842988 529.836028 z"/><path class="selected"  fill="#000000" opacity="1.000000" stroke="none" 
 	d="
M417.511320 472.163983 C417.928965 473.570321 418.342365 475.108343 417.790960 476.467816 C417.239555 477.827290 415.248684 478.629199 414.265715 477.540168 C413.835520 477.063556 413.724252 476.384470 413.678378 475.744062 C413.538285 473.788321 413.840065 471.802196 414.554748 469.976333 C415.547575 470.751298 416.540402 471.526266 417.533229 472.301233 z"/><path class="selected"  fill="#000000" opacity="1.000000" stroke="none" 
 	d="
M461.890972 420.971267 C461.377232 419.247068 461.744520 417.284689 462.847060 415.863001 C463.661887 418.352467 464.476714 420.841933 465.291541 423.331400 C465.497961 423.962054 465.702883 424.659063 465.447256 425.271427 C464.918508 426.538065 462.830511 426.241347 462.127476 425.062495 C461.424441 423.883644 461.672725 422.392978 461.943236 421.047328 z"/><path class="selected"  fill="#000000" opacity="1.000000" stroke="none" 
 	d="
M193.912298 441.346201 C191.353862 440.978555 193.100148 446.302682 190.905562 447.668169 C189.842942 448.329338 187.845843 448.093050 187.842765 449.344567 C187.830070 454.506993 184.610172 459.526941 179.923332 461.691275 C182.097237 454.762564 185.301931 448.158229 189.399316 442.162869 C189.971994 441.324916 190.624112 440.450752 191.584260 440.121752 C192.544409 439.792752 193.851416 440.333074 193.912299 441.346198 z"/><path class="selected"  fill="#000000" opacity="1.000000" stroke="none" 
 	d="
M817.655057 169.808065 C818.698437 173.262200 818.075081 177.179749 816.011136 180.139449 C815.940135 176.087714 815.869134 172.035978 815.798134 167.984242 C816.737121 167.863671 817.381308 168.901811 817.655061 169.808063 z"/><path class="selected"  fill="#000000" opacity="1.000000" stroke="none" 
 	d="
M1319.421224 326.761243 C1321.088453 324.070341 1322.140612 321.000851 1322.474788 317.853005 C1325.193405 320.807960 1323.918894 326.365342 1320.184327 327.840349 z"/><path class="selected"  fill="#000000" opacity="1.000000" stroke="none" 
 	d="
M773.711316 641.032707 C774.112471 642.072642 773.717880 643.362261 772.803499 643.999675 C771.840410 643.026183 770.877321 642.052692 769.914232 641.079200 C771.496515 638.953704 772.409408 636.337307 772.492823 633.688837 C773.961523 635.759369 774.403624 638.522915 773.654166 640.948299 z"/><path class="selected"  fill="#000000" opacity="1.000000" stroke="none" 
 	d="
M1247.613383 492.966749 C1247.849056 490.910111 1249.139242 489.002679 1250.960402 488.018463 C1252.756264 490.624467 1251.471583 494.768386 1248.516531 495.901530 C1248.177783 494.960318 1247.839034 494.019106 1247.500286 493.077894 z"/><path class="selected"  fill="#000000" opacity="1.000000" stroke="none" 
 	d="
M603.813597 715.546037 C603.812601 712.372743 603.811605 709.199448 603.810609 706.026154 C604.890535 705.321336 605.792043 707.162071 605.792450 708.451648 C605.793444 711.624943 605.794440 714.798238 605.795436 717.971532 C604.715509 718.676350 603.814002 716.835615 603.813594 715.546038 z"/><path class="selected"  fill="#000000" opacity="1.000000" stroke="none" 
 	d="
M301.794648 860.018011 C303.808613 860.986490 305.822578 861.954968 307.836544 862.923447 C306.131305 863.900037 304.426065 864.876626 302.720826 865.853215 C301.745122 864.897438 300.769418 863.941660 299.793714 862.985881 C300.833507 862.300086 301.617904 861.236155 301.965553 860.040069 z"/><path class="selected"  fill="#000000" opacity="1.000000" stroke="none" 
 	d="
M1028.784435 265.711294 C1030.419199 269.686600 1030.432842 274.301490 1028.821611 278.286393 C1027.186846 274.311086 1027.173203 269.696196 1028.784433 265.711293 z"/><path class="selected"  fill="#000000" opacity="1.000000" stroke="none" 
 	d="
M1024.098039 529.499797 C1022.952023 530.672766 1021.617399 531.929150 1019.977523 531.925130 C1018.337647 531.921110 1016.879880 529.713962 1018.090078 528.607332 C1018.537649 528.198062 1019.177186 528.089885 1019.780090 528.024113 C1022.491007 527.728372 1025.255863 527.934563 1027.892927 528.629131 C1027.474079 529.780555 1025.985192 530.399536 1024.873499 529.884410 z"/><path class="selected"  fill="#000000" opacity="1.000000" stroke="none" 
 	d="
M602.282353 780.105021 C600.620215 776.560290 601.978730 771.881272 605.280764 769.777849 C605.443197 773.423509 604.371922 777.113211 602.282354 780.105021 z"/><path class="selected"  fill="#000000" opacity="1.000000" stroke="none" 
 	d="
M1302.175218 384.434689 C1299.771575 386.477333 1297.918792 389.162116 1296.861814 392.134099 C1294.203809 388.961030 1297.727878 383.154615 1301.769610 384.047792 z"/><path class="selected"  fill="#000000" opacity="1.000000" stroke="none" 
 	d="
M458.715855 406.350454 C457.595127 402.972060 457.356753 399.305162 458.030659 395.810105 C461.080156 398.069576 460.051644 402.797945 458.715857 406.350454 z"/><path class="selected"  fill="#000000" opacity="1.000000" stroke="none" 
 	d="
M953.721484 401.267210 C955.612230 401.705597 956.377253 404.526096 954.967162 405.859792 C951.960583 404.644627 950.839158 400.262562 952.892411 397.752522 C953.306673 398.783490 953.720936 399.814460 954.135198 400.845429 z"/><path class="selected"  fill="#000000" opacity="1.000000" stroke="none" 
 	d="
M392.263961 751.235260 C390.487542 750.271131 393.077534 747.330821 394.768080 748.438640 C396.458626 749.546459 396.336638 752.083583 395.612096 753.970445 C394.336955 753.323944 393.061812 752.677444 391.786668 752.030944 z"/><path class="selected"  fill="#000000" opacity="1.000000" stroke="none" 
 	d="
M761.873659 382.983510 C761.450451 381.328289 761.727985 379.505744 762.624693 378.051518 C764.175089 378.973546 765.830382 380.337799 765.735893 382.139167 C765.641405 383.940535 762.418291 384.728373 762.192950 382.938659 z"/><path class="selected"  fill="#000000" opacity="1.000000" stroke="none" 
 	d="
M73.567277 665.729996 C72.487134 666.509952 71.406991 667.289908 70.326847 668.069865 C69.684926 665.000470 71.107867 661.604567 73.746129 659.909624 C73.765093 661.939365 73.784058 663.969105 73.803022 665.998846 z"/><path class="selected"  fill="#000000" opacity="1.000000" stroke="none" 
 	d="
M825.661478 318.021025 C825.954041 319.200384 826.722103 320.254546 827.755059 320.894454 C826.399748 322.371121 825.425081 324.194280 824.949968 326.141506 C823.031488 323.685687 823.199998 319.838860 825.325871 317.560203 z"/><path class="selected"  fill="#000000" opacity="1.000000" stroke="none" 
 	d="
M1598.633442 857.364385 C1597.721174 855.575678 1596.795194 853.468431 1597.629854 851.642219 C1598.464515 849.816008 1601.948903 849.791639 1601.972838 851.799408 C1601.979871 852.389210 1601.679718 852.933580 1601.388155 853.446323 C1600.526250 854.962063 1599.664346 856.477803 1598.802442 857.993543 z"/><path class="selected"  fill="#000000" opacity="1.000000" stroke="none" 
 	d="
M1289.347363 296.307624 C1289.946732 297.960936 1290.553598 299.742917 1290.100773 301.442220 C1289.647948 303.141524 1287.633915 304.520239 1286.102788 303.655177 C1287.058614 301.007447 1288.014440 298.359717 1288.970267 295.711986 z"/><path class="selected"  fill="#000000" opacity="1.000000" stroke="none" 
 	d="
M935.036829 811.812825 C933.220717 809.658909 933.109877 806.246853 934.782370 803.979611 C935.794274 804.995224 936.806176 806.010840 937.818079 807.026457 C936.429488 807.787578 935.579409 809.430339 935.760077 811.003505 z"/><path class="selected"  fill="#000000" opacity="1.000000" stroke="none" 
 	d="
M469.814954 809.898179 C467.103789 809.829837 465.148137 806.357469 466.495089 804.003579 C468.750094 804.987545 470.193523 807.563566 469.855390 810.000555 z"/><path class="selected"  fill="#000000" opacity="1.000000" stroke="none" 
 	d="
M784.586261 10.220384 C786.462021 12.414289 786.481913 15.971411 784.630807 18.186157 C783.683198 15.940178 783.422536 13.409731 783.892388 11.017735 z"/><path class="selected"  fill="#000000" opacity="1.000000" stroke="none" 
 	d="
M779.329742 82.551168 C777.416068 79.811964 776.647676 75.088855 779.773186 73.907089 C779.783130 76.604382 779.793077 79.301678 779.803023 81.998973 z"/><path class="selected"  fill="#000000" opacity="1.000000" stroke="none" 
 	d="
M1571.803059 888.998802 C1572.839495 887.973107 1573.875931 886.947412 1574.912367 885.921717 C1576.370877 887.970002 1574.973538 891.344881 1572.493982 891.762646 C1572.160963 890.866855 1571.827945 889.971060 1571.494926 889.075265 z"/><path class="selected"  fill="#000000" opacity="1.000000" stroke="none" 
 	d="
M532.024564 511.215605 C534.218469 509.339844 537.775590 509.319952 539.990336 511.171059 C537.744357 512.118668 535.213910 512.379330 532.821914 511.909477 z"/><path class="selected"  fill="#000000" opacity="1.000000" stroke="none" 
 	d="
M401.885227 803.982057 C401.425195 801.242138 401.676940 798.385812 402.609129 795.768597 C404.533104 798.294806 404.478090 802.136744 402.482570 804.606830 z"/><path class="selected"  fill="#000000" opacity="1.000000" stroke="none" 
 	d="
M1366.416304 492.173217 C1365.291125 489.913510 1366.675361 486.791834 1369.105497 486.108648 C1370.323235 488.109510 1369.009558 491.139083 1366.716678 491.617681 z"/><path class="selected"  fill="#000000" opacity="1.000000" stroke="none" 
 	d="
M598.855097 813.732341 C599.763955 814.024928 600.672812 814.317514 601.581669 814.610100 C600.651150 816.428652 599.720629 818.247207 598.790109 820.065763 C597.373079 818.366966 597.340917 815.666144 598.717092 813.934085 z"/><path class="selected"  fill="#000000" opacity="1.000000" stroke="none" 
 	d="
M499.844450 691.764064 C501.111812 692.021055 502.379174 692.278046 503.646536 692.535036 C502.671295 694.394801 501.696053 696.254566 500.720811 698.114331 C499.705370 696.276497 499.394320 694.060580 499.864531 692.014203 z"/><path class="selected"  fill="#000000" opacity="1.000000" stroke="none" 
 	d="
M711.767003 467.872251 C710.471460 468.378885 708.896016 468.072023 707.885331 467.116185 C709.302235 465.020693 712.516531 462.866215 713.866834 465.005229 C712.798045 465.667127 711.989740 466.738043 711.646194 467.947339 z"/><path class="selected"  fill="#000000" opacity="1.000000" stroke="none" 
 	d="
M271.953633 860.283406 C273.441699 859.848623 275.099728 859.425961 276.487235 860.117481 C277.874742 860.809001 278.354892 863.162065 276.951846 863.821486 C275.112157 862.759408 273.272468 861.697329 271.432779 860.635249 z"/><path class="selected"  fill="#000000" opacity="1.000000" stroke="none" 
 	d="
M68.169926 675.178694 C69.053677 673.420393 69.937428 671.662092 70.821178 669.903791 C71.673370 671.334399 72.406267 673.087360 71.751833 674.618566 C71.097400 676.149773 68.399755 676.523219 67.937869 674.923364 z"/><path class="selected"  fill="#000000" opacity="1.000000" stroke="none" 
 	d="
M222.831940 410.084899 C224.568619 409.578853 226.536678 409.946271 227.973792 411.044832 C225.484680 412.485428 222.245681 412.531443 219.716651 411.162140 C220.287738 410.143337 221.657982 409.659630 222.742095 410.094129 z"/><path class="selected"  fill="#000000" opacity="1.000000" stroke="none" 
 	d="
M395.837248 753.764619 C398.363567 754.227445 398.177418 758.046231 396.728491 760.166869 C395.711202 758.310220 395.397647 756.078720 395.863880 754.013614 z"/><path class="selected"  fill="#000000" opacity="1.000000" stroke="none" 
 	d="
M455.837248 379.764619 C458.363567 380.227445 458.177418 384.046231 456.728491 386.166869 C455.711202 384.310220 455.397647 382.078720 455.863880 380.013614 z"/><path class="selected"  fill="#000000" opacity="1.000000" stroke="none" 
 	d="
M1193.712066 221.020646 C1194.214526 223.402011 1193.958587 225.937492 1192.990351 228.170402 C1191.108064 225.962641 1191.135340 222.365910 1193.050899 220.186948 z"/><path class="selected"  fill="#000000" opacity="1.000000" stroke="none" 
 	d="
M756.720758 332.055380 C755.340896 330.314429 755.373443 327.603785 756.794710 325.896468 C758.228556 327.597997 758.271339 330.316029 756.891760 332.061842 z"/><path class="selected"  fill="#000000" opacity="1.000000" stroke="none" 
 	d="
M350.943487 869.646045 C351.910740 870.064332 352.877993 870.482620 353.845246 870.900907 C352.832042 871.932332 351.818837 872.963754 350.805632 873.995176 C349.478015 873.140684 349.480748 870.861010 350.810411 870.009705 z"/><path class="selected"  fill="#000000" opacity="1.000000" stroke="none" 
 	d="
M966.099961 540.400261 C967.702658 538.686993 970.945244 541.823257 969.286340 543.482161 C967.627436 545.141065 964.491172 541.898479 966.204440 540.295782 z"/><path class="selected"  fill="#000000" opacity="1.000000" stroke="none" 
 	d="
M405.906253 821.643419 C407.221906 822.038859 408.537560 822.434300 409.853213 822.829740 C408.830589 823.892492 407.807965 824.955243 406.785341 826.017995 C405.751108 825.022305 405.398976 823.381899 405.933449 822.049466 z"/><path class="selected"  fill="#000000" opacity="1.000000" stroke="none" 
 	d="
M777.867581 123.983845 C777.427375 121.948440 777.705068 119.765156 778.640781 117.904755 C780.531687 119.564949 780.213440 123.069256 778.054393 124.361649 z"/><path class="selected"  fill="#000000" opacity="1.000000" stroke="none" 
 	d="
M1599.450224 818.858379 C1599.868511 817.891125 1600.286799 816.923872 1600.705087 815.956619 C1601.736512 816.969823 1602.767933 817.983028 1603.799355 818.996233 C1602.944864 820.323850 1600.665189 820.321117 1599.813884 818.991454 z"/><path class="selected"  fill="#000000" opacity="1.000000" stroke="none" 
 	d="
M405.499052 830.869526 C405.876369 829.856792 406.253685 828.844057 406.631002 827.831323 C408.312283 829.469698 408.320129 832.506849 406.647335 834.153889 C406.259836 833.147633 405.872338 832.141377 405.484840 831.135122 z"/><path class="selected"  fill="#000000" opacity="1.000000" stroke="none" 
 	d="
M1252.662572 486.351666 C1251.695350 485.933342 1250.728127 485.515017 1249.760904 485.096693 C1250.774373 484.064160 1251.787842 483.031631 1252.801312 481.999101 C1254.131397 482.861164 1254.128983 485.145670 1252.797078 486.004922 z"/><path class="selected"  fill="#000000" opacity="1.000000" stroke="none" 
 	d="
M1038.782780 119.987246 C1040.121847 120.841101 1040.131972 123.132472 1038.800503 123.998128 C1037.800970 122.998241 1036.801437 121.998352 1035.801904 120.998464 C1036.431494 120.076587 1037.730911 119.681237 1038.767252 120.096250 z"/><path class="selected"  fill="#000000" opacity="1.000000" stroke="none" 
 	d="
M1165.802370 746.999496 C1166.799017 746.006104 1167.795665 745.012711 1168.792312 744.019319 C1169.969660 744.666122 1170.234091 746.510771 1169.285861 747.462277 C1168.337632 748.413782 1166.492081 748.155714 1165.841221 746.980604 z"/><path class="selected"  fill="#000000" opacity="1.000000" stroke="none" 
 	d="
M777.658457 124.023756 C777.965708 125.205674 778.732296 126.261805 779.760820 126.920191 C779.105403 128.277181 776.863049 128.414917 776.046479 127.148347 C775.229910 125.881777 776.280960 123.896225 777.787489 123.859384 z"/><path class="selected"  fill="#000000" opacity="1.000000" stroke="none" 
 	d="
M566.796395 285.920140 C565.560615 286.875698 564.059552 285.107556 563.499252 283.649370 C561.737052 279.063220 559.974852 274.477071 558.212653 269.890922 C557.651692 268.431014 557.665512 266.057064 559.229327 266.079220 C560.176218 266.092635 560.728605 267.124963 561.075288 268.006208 C563.030478 272.976182 564.985668 277.946153 566.940858 282.916124 C567.336224 283.921118 567.650743 285.259521 566.796395 285.920140 z"/><path class="selected"  fill="#000000" opacity="1.000000" stroke="none" 
 	d="
M653.499052 714.869526 C653.876369 713.856792 654.253685 712.844057 654.631002 711.831323 C656.312283 713.469698 656.320129 716.506849 654.647335 718.153889 C654.259836 717.147633 653.872338 716.141377 653.484840 715.135122 z"/><path class="selected"  fill="#000000" opacity="1.000000" stroke="none" 
 	d="
M1263.712267 457.041583 C1264.117461 458.099985 1263.696124 459.412837 1262.750690 460.037778 C1261.281819 458.307064 1261.371106 455.462984 1262.945643 453.827816 C1263.338672 454.838622 1263.731698 455.849427 1264.124725 456.860232 z"/><path class="selected"  fill="#000000" opacity="1.000000" stroke="none" 
 	d="
M1600.108046 842.081483 C1602.246462 843.133418 1602.560759 846.603541 1600.646144 848.022570 C1599.738548 846.545139 1599.452352 844.699063 1599.870005 843.016176 z"/><path class="selected"  fill="#000000" opacity="1.000000" stroke="none" 
 	d="
M1374.822268 481.961086 C1373.646820 481.310357 1373.388323 479.464543 1374.339794 478.515950 C1375.291264 477.567357 1377.136286 477.831444 1377.783452 479.008856 C1376.789702 480.005793 1375.795951 481.002730 1374.802201 481.999667 z"/><path class="selected"  fill="#000000" opacity="1.000000" stroke="none" 
 	d="
M409.939627 464.964638 C408.927400 463.032718 412.539946 461.059801 413.661094 462.930614 C413.014818 464.456427 411.442317 465.543883 409.786597 465.610007 z"/><path class="selected"  fill="#000000" opacity="1.000000" stroke="none" 
 	d="
M581.933932 438.020547 C581.845644 439.936605 578.655862 440.618000 577.792395 438.905255 C578.835109 437.942375 580.430469 437.626107 581.761660 438.118380 z"/><path class="selected"  fill="#000000" opacity="1.000000" stroke="none" 
 	d="
M577.939627 450.964638 C576.927400 449.032718 580.539946 447.059801 581.661094 448.930614 C581.014818 450.456427 579.442317 451.543883 577.786597 451.610007 z"/><path class="selected"  fill="#000000" opacity="1.000000" stroke="none" 
 	d="
M1187.802285 674.998087 C1187.122301 674.324569 1186.442317 673.651052 1185.762333 672.977534 C1186.800613 671.814390 1188.988722 671.669450 1189.775208 673.015694 C1190.561693 674.361938 1188.511522 676.312507 1187.430360 675.189111 z"/><path class="selected"  fill="#000000" opacity="1.000000" stroke="none" 
 	d="
M1315.781404 290.000039 C1315.453476 288.103408 1318.720713 287.510159 1319.867402 289.056073 C1318.818408 290.043539 1317.198853 290.375432 1315.846005 289.880171 z"/><path class="selected"  fill="#000000" opacity="1.000000" stroke="none" 
 	d="
M1313.528144 362.930366 C1313.837864 362.000421 1314.147585 361.070477 1314.457305 360.140532 C1316.422391 360.359833 1315.498137 364.213206 1313.647377 363.517256 z"/><path class="selected"  fill="#000000" opacity="1.000000" stroke="none" 
 	d="
M199.763006 437.879244 C198.431466 438.369963 196.836901 438.052878 195.794398 437.090073 C196.660553 435.380109 199.845783 436.062553 199.935341 437.977283 z"/><path class="selected"  fill="#000000" opacity="1.000000" stroke="none" 
 	d="
M537.604963 188.482656 C538.535331 188.116832 539.718957 188.726428 539.961417 189.696286 C540.203877 190.666145 539.446359 191.761017 538.453293 191.876042 C538.145092 190.941022 537.836891 190.005999 537.528690 189.070977 z"/><path class="selected"  fill="#000000" opacity="1.000000" stroke="none" 
 	d="
M640.784486 463.992749 C642.122141 464.846697 642.132492 467.135642 640.802616 468.001654 C639.477646 467.138071 639.480817 464.861298 640.808187 464.001406 z"/><path class="selected"  fill="#000000" opacity="1.000000" stroke="none" 
 	d="
M910.756234 459.969657 C911.751142 460.117850 911.453302 461.859587 910.476155 462.098307 C909.499008 462.337028 908.554745 461.666098 907.771604 461.034835 C908.396997 460.093794 909.710109 459.680247 910.761893 460.093084 z"/><path class="selected"  fill="#000000" opacity="1.000000" stroke="none" 
 	d="
M201.933932 432.020547 C201.845644 433.936605 198.655862 434.618000 197.792395 432.905255 C198.835109 431.942375 200.430469 431.626107 201.761660 432.118380 z"/><path class="selected"  fill="#000000" opacity="1.000000" stroke="none" 
 	d="
M813.604963 444.482656 C814.535331 444.116832 815.718957 444.726428 815.961417 445.696286 C816.203877 446.666145 815.446359 447.761017 814.453293 447.876042 C814.145092 446.941022 813.836891 446.005999 813.528690 445.070977 z"/><path class="selected"  fill="#000000" opacity="1.000000" stroke="none" 
 	d="
M1041.549991 723.943516 C1041.834967 722.607854 1042.119942 721.272191 1042.404917 719.936529 C1044.308973 720.521806 1043.856753 724.023652 1041.866481 724.106029 z"/><path class="selected"  fill="#000000" opacity="1.000000" stroke="none" 
 	d="
M1038.832990 736.008708 C1037.483983 735.160424 1037.467139 732.857042 1038.803597 731.989121 C1040.135560 732.856606 1040.121591 735.151072 1038.779168 736.002279 z"/><path class="selected"  fill="#000000" opacity="1.000000" stroke="none" 
 	d="
M636.001082 355.515030 C635.070714 355.880854 633.887087 355.271258 633.644628 354.301400 C633.402168 353.331541 634.159686 352.236669 635.152752 352.121644 C635.460953 353.056664 635.769154 353.991687 636.077355 354.926709 z"/><path class="selected"  fill="#000000" opacity="1.000000" stroke="none" 
 	d="
M1036.774265 137.990633 C1038.117580 138.840712 1038.133374 141.135514 1036.801887 142.004003 C1035.469608 141.135439 1035.485945 138.839050 1036.830447 137.989530 z"/><path class="selected"  fill="#000000" opacity="1.000000" stroke="none" 
 	d="
M993.804218 260.020461 C991.907588 260.348389 991.314338 257.081152 992.860252 255.934464 C993.847718 256.983457 994.179612 258.603013 993.684350 259.955860 z"/><path class="selected"  fill="#000000" opacity="1.000000" stroke="none" 
 	d="
M404.815833 839.987436 C403.482347 839.146999 403.474012 836.865360 404.801322 836.015202 C406.131774 836.862681 406.125077 839.148267 404.789681 839.987936 z"/><path class="selected"  fill="#000000" opacity="1.000000" stroke="none" 
 	d="
M570.790212 298.010250 C572.123698 298.850687 572.132033 301.132326 570.804723 301.982484 C569.474271 301.135005 569.480968 298.849419 570.816364 298.009750 z"/><path class="selected"  fill="#000000" opacity="1.000000" stroke="none" 
 	d="
M777.804218 138.020461 C775.907588 138.348389 775.314338 135.081152 776.860252 133.934464 C777.847718 134.983457 778.179612 136.603013 777.684350 137.955860 z"/><path class="selected"  fill="#000000" opacity="1.000000" stroke="none" 
 	d="
M149.814429 865.011654 C150.654867 863.678167 152.936505 863.669832 153.786663 864.997143 C152.939184 866.327595 150.653598 866.320898 149.813929 864.985501 z"/><path class="selected"  fill="#000000" opacity="1.000000" stroke="none" 
 	d="
M595.720446 657.039943 C596.109419 658.100499 595.697185 659.399263 594.767781 660.041360 C594.134668 659.254830 593.461846 658.306427 593.702438 657.325824 C593.943030 656.345221 595.692147 656.048728 595.838997 657.047678 z"/><path class="selected"  fill="#000000" opacity="1.000000" stroke="none" 
 	d="
M419.720446 481.039943 C420.109419 482.100499 419.697185 483.399263 418.767781 484.041360 C418.134668 483.254830 417.461846 482.306427 417.702438 481.325824 C417.943030 480.345221 419.692147 480.048728 419.838997 481.047678 z"/><path class="selected"  fill="#000000" opacity="1.000000" stroke="none" 
 	d="
M602.781457 791.988959 C604.121038 792.844992 604.133353 795.136270 602.803051 796.006653 C601.476080 795.141155 601.484018 792.858301 602.816978 792.002051 z"/><path class="selected"  fill="#000000" opacity="1.000000" stroke="none" 
 	d="
M392.871499 313.723964 C393.801444 314.033685 394.731389 314.343405 395.661333 314.653126 C395.442033 316.618211 391.588659 315.693958 392.284610 313.843198 z"/><path class="selected"  fill="#000000" opacity="1.000000" stroke="none" 
 	d="
M1148.820813 400.011125 C1147.464458 399.161382 1147.453825 396.842345 1148.802332 395.980201 C1150.147916 396.839005 1150.145305 399.148555 1148.797781 400.004317 z"/><path class="selected"  fill="#000000" opacity="1.000000" stroke="none" 
 	d="
M1175.801826 277.977225 C1177.698457 277.649297 1178.291706 280.916534 1176.745792 282.063222 C1175.758326 281.014229 1175.426433 279.394673 1175.921694 278.041826 z"/><path class="selected"  fill="#000000" opacity="1.000000" stroke="none" 
 	d="
M603.719828 263.039488 C604.109852 264.099769 603.697555 265.399240 602.767595 266.040714 C602.134936 265.254725 601.462604 264.307251 601.702299 263.327156 C601.941993 262.347060 603.688419 262.047629 603.838179 263.045433 z"/><path class="selected"  fill="#000000" opacity="1.000000" stroke="none" 
 	d="
M1311.791615 630.986032 C1310.951178 632.319519 1308.669539 632.327854 1307.819382 631.000543 C1308.666860 629.670091 1310.952446 629.676788 1311.792116 631.012185 z"/><path class="selected"  fill="#000000" opacity="1.000000" stroke="none" 
 	d="
M1603.791615 750.986032 C1602.951178 752.319519 1600.669539 752.327854 1599.819382 751.000543 C1600.666860 749.670091 1602.952446 749.676788 1603.792116 751.012185 z"/><path class="selected"  fill="#000000" opacity="1.000000" stroke="none" 
 	d="
M29.824305 754.104178 C27.607504 754.068323 27.599724 749.763150 29.805864 749.983233 C29.804917 751.321766 29.803969 752.660304 29.803021 753.998841 z"/><path class="selected"  fill="#000000" opacity="1.000000" stroke="none" 
 	d="
M572.790212 330.010250 C574.123698 330.850687 574.132033 333.132326 572.804723 333.982484 C571.474271 333.135005 571.480968 330.849419 572.816364 330.009750 z"/><path class="selected"  fill="#000000" opacity="1.000000" stroke="none" 
 	d="
M779.549991 73.943516 C779.834967 72.607854 780.119942 71.272191 780.404917 69.936529 C782.308973 70.521806 781.856753 74.023652 779.866481 74.106029 z"/><path class="selected"  fill="#000000" opacity="1.000000" stroke="none" 
 	d="
M1668.849811 494.028029 C1667.854903 493.879836 1668.152743 492.138099 1669.129889 491.899379 C1670.107036 491.660658 1671.051300 492.331588 1671.834441 492.962851 C1671.209048 493.903892 1669.895935 494.317439 1668.844152 493.904602 z"/><path class="selected"  fill="#000000" opacity="1.000000" stroke="none" 
 	d="
M937.604963 620.482656 C938.535331 620.116832 939.718957 620.726428 939.961417 621.696286 C940.203877 622.666145 939.446359 623.761017 938.453293 623.876042 C938.145092 622.941022 937.836891 622.005999 937.528690 621.070977 z"/><path class="selected"  fill="#000000" opacity="1.000000" stroke="none" 
 	d="
M1151.528144 380.930366 C1151.837864 380.000421 1152.147585 379.070477 1152.457305 378.140532 C1154.422391 378.359833 1153.498137 382.213206 1151.647377 381.517256 z"/><path class="selected"  fill="#000000" opacity="1.000000" stroke="none" 
 	d="
M415.814429 307.011654 C416.654867 305.678167 418.936505 305.669832 419.786663 306.997143 C418.939184 308.327595 416.653598 308.320898 415.813929 306.985501 z"/><path class="selected"  fill="#000000" opacity="1.000000" stroke="none" 
 	d="
M570.756234 321.969657 C571.751142 322.117850 571.453302 323.859587 570.476155 324.098307 C569.499008 324.337028 568.554745 323.666098 567.771604 323.034835 C568.396997 322.093794 569.710109 321.680247 570.761893 322.093084 z"/><path class="selected"  fill="#000000" opacity="1.000000" stroke="none" 
 	d="
M782.817340 36.009553 C781.482590 35.154273 781.473462 32.869258 782.801336 32.003341 C784.150809 32.832994 784.106618 35.099393 782.822420 36.026887 z"/><path class="selected"  fill="#000000" opacity="1.000000" stroke="none" 
 	d="
M112.790212 582.010250 C114.123698 582.850687 114.132033 585.132326 112.804723 585.982484 C111.474271 585.135005 111.480968 582.849419 112.816364 582.009750 z"/><path class="selected"  fill="#000000" opacity="1.000000" stroke="none" 
 	d="
M533.814429 579.011654 C534.654867 577.678167 536.936505 577.669832 537.786663 578.997143 C536.939184 580.327595 534.653598 580.320898 533.813929 578.985501 z"/><path class="selected"  fill="#000000" opacity="1.000000" stroke="none" 
 	d="
M326.790212 534.010250 C328.123698 534.850687 328.132033 537.132326 326.804723 537.982484 C325.474271 537.135005 325.480968 534.849419 326.816364 534.009750 z"/><path class="selected"  fill="#000000" opacity="1.000000" stroke="none" 
 	d="
M1157.933932 546.020547 C1157.845644 547.936605 1154.655862 548.618000 1153.792395 546.905255 C1154.835109 545.942375 1156.430469 545.626107 1157.761660 546.118380 z"/><path class="selected"  fill="#000000" opacity="1.000000" stroke="none" 
 	d="
M1633.858349 557.745812 C1635.194012 558.030787 1636.529674 558.315763 1637.865336 558.600738 C1637.280059 560.504793 1633.778213 560.052574 1633.695836 558.062301 z"/><path class="selected"  fill="#000000" opacity="1.000000" stroke="none" 
 	d="
M995.720446 533.039943 C996.109419 534.100499 995.697185 535.399263 994.767781 536.041360 C994.134668 535.254830 993.461846 534.306427 993.702438 533.325824 C993.943030 532.345221 995.692147 532.048728 995.838997 533.047678 z"/><path class="selected"  fill="#000000" opacity="1.000000" stroke="none" 
 	d="
M826.777944 309.986531 C828.121432 310.836196 828.137945 313.130838 826.806825 313.999751 C825.473740 313.133626 825.485571 310.838644 826.827516 309.986308 z"/><path class="selected"  fill="#000000" opacity="1.000000" stroke="none" 
 	d="
M639.528144 378.930366 C639.837864 378.000421 640.147585 377.070477 640.457305 376.140532 C642.422391 376.359833 641.498137 380.213206 639.647377 379.517256 z"/><path class="selected"  fill="#000000" opacity="1.000000" stroke="none" 
 	d="
M455.804218 380.020461 C453.907588 380.348389 453.314338 377.081152 454.860252 375.934464 C455.847718 376.983457 456.179612 378.603013 455.684350 379.955860 z"/><path class="selected"  fill="#000000" opacity="1.000000" stroke="none" 
 	d="
M767.604963 578.482656 C768.535331 578.116832 769.718957 578.726428 769.961417 579.696286 C770.203877 580.666145 769.446359 581.761017 768.453293 581.876042 C768.145092 580.941022 767.836891 580.005999 767.528690 579.070977 z"/><path class="selected"  fill="#000000" opacity="1.000000" stroke="none" 
 	d="
M658.829584 555.851759 C657.968700 555.815818 657.940991 554.210815 658.800122 554.145180 C659.663512 554.206867 659.637567 555.821860 658.772640 555.855786 z"/><path class="selected"  fill="#000000" opacity="1.000000" stroke="none" 
 	d="
M1669.490425 546.262363 C1669.262520 546.967691 1669.034616 547.673019 1668.806711 548.378347 C1668.581544 547.693737 1668.356379 547.009127 1668.131214 546.324516 z"/><path class="selected"  fill="#000000" opacity="1.000000" stroke="none" 
 	d="
M1209.950107 573.025404 C1209.986048 572.164520 1211.591050 572.136812 1211.656685 572.995943 C1211.594998 573.859333 1209.980006 573.833388 1209.946079 572.968460 z"/><path class="selected"  fill="#000000" opacity="1.000000" stroke="none" 
 	d="
M1105.926616 553.815924 C1105.234639 553.062660 1106.632614 551.722712 1107.355883 552.445982 C1108.079153 553.169252 1106.739206 554.567226 1105.985942 553.875249 z"/><path class="selected"  fill="#000000" opacity="1.000000" stroke="none" 
 	d="
M1051.598033 558.203832 C1050.908508 557.514307 1049.591611 558.831203 1050.281136 559.520729 C1050.970662 560.210254 1052.287558 558.893358 1051.598033 558.203832 z"/><path class="selected"  fill="#000000" opacity="1.000000" stroke="none" 
 	d="
M1105.598033 554.203832 C1104.908508 553.514307 1103.591611 554.831203 1104.281136 555.520729 C1104.970662 556.210254 1106.287558 554.893358 1105.598033 554.203832 z"/><path class="selected"  fill="#000000" opacity="1.000000" stroke="none" 
 	d="
M983.950107 537.025404 C983.986048 536.164520 985.591050 536.136812 985.656685 536.995943 C985.594998 537.859333 983.980006 537.833388 983.946079 536.968460 z"/><path class="selected"  fill="#000000" opacity="1.000000" stroke="none" 
 	d="
M634.776461 578.145927 C635.637345 578.181868 635.665053 579.786871 634.805923 579.852506 C633.942532 579.790819 633.968477 578.175826 634.833405 578.141900 z"/><path class="selected"  fill="#000000" opacity="1.000000" stroke="none" 
 	d="
M144.776461 528.145927 C145.637345 528.181868 145.665053 529.786871 144.805923 529.852506 C143.942532 529.790819 143.968477 528.175826 144.833405 528.141900 z"/><path class="selected"  fill="#000000" opacity="1.000000" stroke="none" 
 	d="
M1007.598033 532.203832 C1006.908508 531.514307 1005.591611 532.831203 1006.281136 533.520729 C1006.970662 534.210254 1008.287558 532.893358 1007.598033 532.203832 z"/><path class="selected"  fill="#000000" opacity="1.000000" stroke="none" 
 	d="
M872.776461 520.145927 C873.637345 520.181868 873.665053 521.786871 872.805923 521.852506 C871.942532 521.790819 871.968477 520.175826 872.833405 520.141900 z"/><path class="selected"  fill="#000000" opacity="1.000000" stroke="none" 
 	d="
M1007.926616 531.815924 C1007.234639 531.062660 1008.632614 529.722712 1009.355883 530.445982 C1010.079153 531.169252 1008.739206 532.567226 1007.985942 531.875249 z"/><path class="selected"  fill="#000000" opacity="1.000000" stroke="none" 
 	d="
M833.926616 529.815924 C833.234639 529.062660 834.632614 527.722712 835.355883 528.445982 C836.079153 529.169252 834.739206 530.567226 833.985942 529.875249 z"/><path class="selected"  fill="#000000" opacity="1.000000" stroke="none" 
 	d="
M485.598033 590.203832 C484.908508 589.514307 483.591611 590.831203 484.281136 591.520729 C484.970662 592.210254 486.287558 590.893358 485.598033 590.203832 z"/><path class="selected"  fill="#000000" opacity="1.000000" stroke="none" 
 	d="
M150.776461 518.145927 C151.637345 518.181868 151.665053 519.786871 150.805923 519.852506 C149.942532 519.790819 149.968477 518.175826 150.833405 518.141900 z"/><path class="selected"  fill="#000000" opacity="1.000000" stroke="none" 
 	d="
M478.776461 506.145927 C479.637345 506.181868 479.665053 507.786871 478.805923 507.852506 C477.942532 507.790819 477.968477 506.175826 478.833405 506.141900 z"/><path class="selected"  fill="#000000" opacity="1.000000" stroke="none" 
 	d="
M435.985942 620.122437 C436.739206 619.430460 438.079153 620.828434 437.355883 621.551704 C436.632614 622.274974 435.234639 620.935026 435.926616 620.181762 z"/><path class="selected"  fill="#000000" opacity="1.000000" stroke="none" 
 	d="
M435.620103 619.875249 C434.866839 620.567226 433.526891 619.169252 434.250161 618.445982 C434.973431 617.722712 436.371405 619.062660 435.679428 619.815924 z"/><path class="selected"  fill="#000000" opacity="1.000000" stroke="none" 
 	d="
M431.603543 610.151153 C430.961685 609.310518 429.356190 610.536377 429.998048 611.377012 C430.639906 612.217647 432.245401 610.991789 431.603543 610.151153 z"/><path class="selected"  fill="#000000" opacity="1.000000" stroke="none" 
 	d="
M1309.950107 627.025404 C1309.986048 626.164520 1311.591050 626.136812 1311.656685 626.995943 C1311.594998 627.859333 1309.980006 627.833388 1309.946079 626.968460 z"/><path class="selected"  fill="#000000" opacity="1.000000" stroke="none" 
 	d="
M1195.950107 629.025404 C1195.986048 628.164520 1197.591050 628.136812 1197.656685 628.995943 C1197.594998 629.859333 1195.980006 629.833388 1195.946079 628.968460 z"/><path class="selected"  fill="#000000" opacity="1.000000" stroke="none" 
 	d="
M439.598033 626.203832 C438.908508 625.514307 437.591611 626.831203 438.281136 627.520729 C438.970662 628.210254 440.287558 626.893358 439.598033 626.203832 z"/><path class="selected"  fill="#000000" opacity="1.000000" stroke="none" 
 	d="
M495.655938 638.972282 C495.619997 639.833166 494.014994 639.860874 493.949359 639.001743 C494.011046 638.138353 495.626039 638.164298 495.659965 639.029226 z"/><path class="selected"  fill="#000000" opacity="1.000000" stroke="none" 
 	d="
M160.829584 499.851759 C159.968700 499.815818 159.940991 498.210815 160.800122 498.145180 C161.663512 498.206867 161.637567 499.821860 160.772640 499.855786 z"/><path class="selected"  fill="#000000" opacity="1.000000" stroke="none" 
 	d="
M421.655938 490.972282 C421.619997 491.833166 420.014994 491.860874 419.949359 491.001743 C420.011046 490.138353 421.626039 490.164298 421.659965 491.029226 z"/><path class="selected"  fill="#000000" opacity="1.000000" stroke="none" 
 	d="
M443.950107 655.025404 C443.986048 654.164520 445.591050 654.136812 445.656685 654.995943 C445.594998 655.859333 443.980006 655.833388 443.946079 654.968460 z"/><path class="selected"  fill="#000000" opacity="1.000000" stroke="none" 
 	d="
M1304.776461 660.145927 C1305.637345 660.181868 1305.665053 661.786871 1304.805923 661.852506 C1303.942532 661.790819 1303.968477 660.175826 1304.833405 660.141900 z"/><path class="selected"  fill="#000000" opacity="1.000000" stroke="none" 
 	d="
M1189.655938 662.972282 C1189.619997 663.833166 1188.014994 663.860874 1187.949359 663.001743 C1188.011046 662.138353 1189.626039 662.164298 1189.659965 663.029226 z"/><path class="selected"  fill="#000000" opacity="1.000000" stroke="none" 
 	d="
M581.598033 476.203832 C580.908508 475.514307 579.591611 476.831203 580.281136 477.520729 C580.970662 478.210254 582.287558 476.893358 581.598033 476.203832 z"/><path class="selected"  fill="#000000" opacity="1.000000" stroke="none" 
 	d="
M1021.598033 474.203832 C1020.908508 473.514307 1019.591611 474.831203 1020.281136 475.520729 C1020.970662 476.210254 1022.287558 474.893358 1021.598033 474.203832 z"/><path class="selected"  fill="#000000" opacity="1.000000" stroke="none" 
 	d="
M73.926616 659.815924 C73.234639 659.062660 74.632614 657.722712 75.355883 658.445982 C76.079153 659.169252 74.739206 660.567226 73.985942 659.875249 z"/><path class="selected"  fill="#000000" opacity="1.000000" stroke="none" 
 	d="
M1050.829584 677.851759 C1049.968700 677.815818 1049.940991 676.210815 1050.800122 676.145180 C1051.663512 676.206867 1051.637567 677.821860 1050.772640 677.855786 z"/><path class="selected"  fill="#000000" opacity="1.000000" stroke="none" 
 	d="
M1133.438727 697.590530 C1134.143184 696.956628 1134.847641 696.322726 1135.552098 695.688824 C1136.186992 696.713612 1135.049165 698.264015 1133.881146 697.965665 z"/><path class="selected"  fill="#000000" opacity="1.000000" stroke="none" 
 	d="
M289.985942 474.122437 C290.739206 473.430460 292.079153 474.828434 291.355883 475.551704 C290.632614 476.274974 289.234639 474.935026 289.926616 474.181762 z"/><path class="selected"  fill="#000000" opacity="1.000000" stroke="none" 
 	d="
M855.620103 469.875249 C854.866839 470.567226 853.526891 469.169252 854.250161 468.445982 C854.973431 467.722712 856.371405 469.062660 855.679428 469.815924 z"/><path class="selected"  fill="#000000" opacity="1.000000" stroke="none" 
 	d="
M1021.926616 473.815924 C1021.234639 473.062660 1022.632614 471.722712 1023.355883 472.445982 C1024.079153 473.169252 1022.739206 474.567226 1021.985942 473.875249 z"/><path class="selected"  fill="#000000" opacity="1.000000" stroke="none" 
 	d="
M256.434954 437.649504 C256.969569 438.510156 257.504184 439.370808 258.038799 440.231460 C257.188309 439.706293 256.337819 439.181125 255.487329 438.655957 z"/><path class="selected"  fill="#000000" opacity="1.000000" stroke="none" 
 	d="
M377.926616 681.815924 C377.234639 681.062660 378.632614 679.722712 379.355883 680.445982 C380.079153 681.169252 378.739206 682.567226 377.985942 681.875249 z"/><path class="selected"  fill="#000000" opacity="1.000000" stroke="none" 
 	d="
M781.426878 720.368148 C780.795199 719.692173 780.163520 719.016199 779.531840 718.340224 C780.524418 717.452099 782.615176 718.849704 781.667979 719.786080 z"/><path class="selected"  fill="#000000" opacity="1.000000" stroke="none" 
 	d="
M578.776461 464.145927 C579.637345 464.181868 579.665053 465.786871 578.805923 465.852506 C577.942532 465.790819 577.968477 464.175826 578.833405 464.141900 z"/><path class="selected"  fill="#000000" opacity="1.000000" stroke="none" 
 	d="
M993.655938 456.972282 C993.619997 457.833166 992.014994 457.860874 991.949359 457.001743 C992.011046 456.138353 993.626039 456.164298 993.659965 457.029226 z"/><path class="selected"  fill="#000000" opacity="1.000000" stroke="none" 
 	d="
M603.620103 705.875249 C602.866839 706.567226 601.526891 705.169252 602.250161 704.445982 C602.973431 703.722712 604.371405 705.062660 603.679428 705.815924 z"/><path class="selected"  fill="#000000" opacity="1.000000" stroke="none" 
 	d="
M1255.985942 720.122437 C1256.739206 719.430460 1258.079153 720.828434 1257.355883 721.551704 C1256.632614 722.274974 1255.234639 720.935026 1255.926616 720.181762 z"/><path class="selected"  fill="#000000" opacity="1.000000" stroke="none" 
 	d="
M1174.776461 726.145927 C1175.637345 726.181868 1175.665053 727.786871 1174.805923 727.852506 C1173.942532 727.790819 1173.968477 726.175826 1174.833405 726.141900 z"/><path class="selected"  fill="#000000" opacity="1.000000" stroke="none" 
 	d="
M405.598033 420.203832 C404.908508 419.514307 403.591611 420.831203 404.281136 421.520729 C404.970662 422.210254 406.287558 420.893358 405.598033 420.203832 z"/><path class="selected"  fill="#000000" opacity="1.000000" stroke="none" 
 	d="
M1255.620103 719.875249 C1254.866839 720.567226 1253.526891 719.169252 1254.250161 718.445982 C1254.973431 717.722712 1256.371405 719.062660 1255.679428 719.815924 z"/><path class="selected"  fill="#000000" opacity="1.000000" stroke="none" 
 	d="
M1041.598033 724.203832 C1040.908508 723.514307 1039.591611 724.831203 1040.281136 725.520729 C1040.970662 726.210254 1042.287558 724.893358 1041.598033 724.203832 z"/><path class="selected"  fill="#000000" opacity="1.000000" stroke="none" 
 	d="
M390.776461 730.145927 C391.637345 730.181868 391.665053 731.786871 390.805923 731.852506 C389.942532 731.790819 389.968477 730.175826 390.833405 730.141900 z"/><path class="selected"  fill="#000000" opacity="1.000000" stroke="none" 
 	d="
M1166.829584 751.851759 C1165.968700 751.815818 1165.940991 750.210815 1166.800122 750.145180 C1167.663512 750.206867 1167.637567 751.821860 1166.772640 751.855786 z"/><path class="selected"  fill="#000000" opacity="1.000000" stroke="none" 
 	d="
M638.776461 372.145927 C639.637345 372.181868 639.665053 373.786871 638.805923 373.852506 C637.942532 373.790819 637.968477 372.175826 638.833405 372.141900 z"/><path class="selected"  fill="#000000" opacity="1.000000" stroke="none" 
 	d="
M1164.829584 759.851759 C1163.968700 759.815818 1163.940991 758.210815 1164.800122 758.145180 C1165.663512 758.206867 1165.637567 759.821860 1164.772640 759.855786 z"/><path class="selected"  fill="#000000" opacity="1.000000" stroke="none" 
 	d="
M392.776461 320.145927 C393.637345 320.181868 393.665053 321.786871 392.805923 321.852506 C391.942532 321.790819 391.968477 320.175826 392.833405 320.141900 z"/><path class="selected"  fill="#000000" opacity="1.000000" stroke="none" 
 	d="
M1301.926616 383.815924 C1301.234639 383.062660 1302.632614 381.722712 1303.355883 382.445982 C1304.079153 383.169252 1302.739206 384.567226 1301.985942 383.875249 z"/><path class="selected"  fill="#000000" opacity="1.000000" stroke="none" 
 	d="
M1289.438727 295.590530 C1290.143184 294.956628 1290.847641 294.322726 1291.552098 293.688824 C1292.186992 294.713612 1291.049165 296.264015 1289.881146 295.965665 z"/><path class="selected"  fill="#000000" opacity="1.000000" stroke="none" 
 	d="
M601.598033 780.203832 C600.908508 779.514307 599.591611 780.831203 600.281136 781.520729 C600.970662 782.210254 602.287558 780.893358 601.598033 780.203832 z"/><path class="selected"  fill="#000000" opacity="1.000000" stroke="none" 
 	d="
M469.985942 810.122437 C470.739206 809.430460 472.079153 810.828434 471.355883 811.551704 C470.632614 812.274974 469.234639 810.935026 469.926616 810.181762 z"/><path class="selected"  fill="#000000" opacity="1.000000" stroke="none" 
 	d="
M825.926616 317.815924 C825.234639 317.062660 826.632614 315.722712 827.355883 316.445982 C828.079153 317.169252 826.739206 318.567226 825.985942 317.875249 z"/><path class="selected"  fill="#000000" opacity="1.000000" stroke="none" 
 	d="
M1321.950107 293.025404 C1321.986048 292.164520 1323.591050 292.136812 1323.656685 292.995943 C1323.594998 293.859333 1321.980006 293.833388 1321.946079 292.968460 z"/><path class="selected"  fill="#000000" opacity="1.000000" stroke="none" 
 	d="
M405.620103 305.875249 C404.866839 306.567226 403.526891 305.169252 404.250161 304.445982 C404.973431 303.722712 406.371405 305.062660 405.679428 305.815924 z"/><path class="selected"  fill="#000000" opacity="1.000000" stroke="none" 
 	d="
M80.829584 821.851759 C79.968700 821.815818 79.940991 820.210815 80.800122 820.145180 C81.663512 820.206867 81.637567 821.821860 80.772640 821.855786 z"/><path class="selected"  fill="#000000" opacity="1.000000" stroke="none" 
 	d="
M48.829584 837.851759 C47.968700 837.815818 47.940991 836.210815 48.800122 836.145180 C49.663512 836.206867 49.637567 837.821860 48.772640 837.855786 z"/><path class="selected"  fill="#000000" opacity="1.000000" stroke="none" 
 	d="
M613.620103 285.875249 C612.866839 286.567226 611.526891 285.169252 612.250161 284.445982 C612.973431 283.722712 614.371405 285.062660 613.679428 285.815924 z"/><path class="selected"  fill="#000000" opacity="1.000000" stroke="none" 
 	d="
M771.620103 275.875249 C770.866839 276.567226 769.526891 275.169252 770.250161 274.445982 C770.973431 273.722712 772.371405 275.062660 771.679428 275.815924 z"/><path class="selected"  fill="#000000" opacity="1.000000" stroke="none" 
 	d="
M282.776461 862.145927 C283.637345 862.181868 283.665053 863.786871 282.805923 863.852506 C281.942532 863.790819 281.968477 862.175826 282.833405 862.141900 z"/><path class="selected"  fill="#000000" opacity="1.000000" stroke="none" 
 	d="
M1179.985942 260.122437 C1180.739206 259.430460 1182.079153 260.828434 1181.355883 261.551704 C1180.632614 262.274974 1179.234639 260.935026 1179.926616 260.181762 z"/><path class="selected"  fill="#000000" opacity="1.000000" stroke="none" 
 	d="
M271.620103 859.875249 C270.866839 860.567226 269.526891 859.169252 270.250161 858.445982 C270.973431 857.722712 272.371405 859.062660 271.679428 859.815924 z"/><path class="selected"  fill="#000000" opacity="1.000000" stroke="none" 
 	d="
M590.829584 869.851759 C589.968700 869.815818 589.940991 868.210815 590.800122 868.145180 C591.663512 868.206867 591.637567 869.821860 590.772640 869.855786 z"/><path class="selected"  fill="#000000" opacity="1.000000" stroke="none" 
 	d="
M573.926616 137.815924 C573.234639 137.062660 574.632614 135.722712 575.355883 136.445982 C576.079153 137.169252 574.739206 138.567226 573.985942 137.875249 z"/><path class="selected"  fill="#000000" opacity="1.000000" stroke="none" 
 	d="
M778.718335 115.877679 C777.783267 115.608542 778.294520 113.823000 779.230328 114.089549 C779.268263 114.725876 779.306195 115.362205 779.344127 115.998533 z"/><path class="selected"  fill="#000000" opacity="1.000000" stroke="none" 
 	d="
M125.598033 868.203832 C124.908508 867.514307 123.591611 868.831203 124.281136 869.520729 C124.970662 870.210254 126.287558 868.893358 125.598033 868.203832 z"/><path class="selected"  fill="#000000" opacity="1.000000" stroke="none" 
 	d="
M368.829584 873.851759 C367.968700 873.815818 367.940991 872.210815 368.800122 872.145180 C369.663512 872.206867 369.637567 873.821860 368.772640 873.855786 z"/><path class="selected"  fill="#000000" opacity="1.000000" stroke="none" 
 	d="
M590.829584 873.851759 C589.968700 873.815818 589.940991 872.210815 590.800122 872.145180 C591.663512 872.206867 591.637567 873.821860 590.772640 873.855786 z"/><path class="selected"  fill="#000000" opacity="1.000000" stroke="none" 
 	d="
M541.950107 109.025404 C541.986048 108.164520 543.591050 108.136812 543.656685 108.995943 C543.594998 109.859333 541.980006 109.833388 541.946079 108.968460 z"/><path class="selected"  fill="#000000" opacity="1.000000" stroke="none" 
 	d="
M383.598033 868.203832 C382.908508 867.514307 381.591611 868.831203 382.281136 869.520729 C382.970662 870.210254 384.287558 868.893358 383.598033 868.203832 z"/><path class="selected"  fill="#000000" opacity="1.000000" stroke="none" 
 	d="
M781.171091 84.348182 C780.636476 83.487530 780.101860 82.626878 779.567245 81.766226 C780.417736 82.291393 781.268226 82.816561 782.118715 83.341729 z"/><path class="selected"  fill="#000000" opacity="1.000000" stroke="none" 
 	d="
M589.950107 879.025404 C589.986048 878.164520 591.591050 878.136812 591.656685 878.995943 C591.594998 879.859333 589.980006 879.833388 589.946079 878.968460 z"/><path class="selected"  fill="#000000" opacity="1.000000" stroke="none" 
 	d="
M1580.776461 880.145927 C1581.637345 880.181868 1581.665053 881.786871 1580.805923 881.852506 C1579.942532 881.790819 1579.968477 880.175826 1580.833405 880.141900 z"/><path class="selected"  fill="#000000" opacity="1.000000" stroke="none" 
 	d="
M590.829584 885.851759 C589.968700 885.815818 589.940991 884.210815 590.800122 884.145180 C591.663512 884.206867 591.637567 885.821860 590.772640 885.855786 z"/><path class="selected"  fill="#000000" opacity="1.000000" stroke="none" 
 	d="
M198.371651 588.129341 C197.864920 585.438796 201.614865 583.126775 203.791175 584.787945 C202.838497 586.649806 200.907785 587.974956 198.827897 588.194502 z"/><path class="selected"  fill="#000000" opacity="1.000000" stroke="none" 
 	d="
M809.355777 0.000000 C809.309163 0.637117 809.262549 1.274234 809.215935 1.911351 C808.288145 2.154035 807.790414 0.408646 808.706656 0.125466 z"/><path class="selected"  fill="#000000" opacity="1.000000" stroke="none" 
 	d="
M209.772114 570.090633 C210.064941 571.257782 208.508825 572.385059 207.491073 571.743059 C208.124934 571.042467 208.758796 570.341876 209.392659 569.641286 z"/><path class="selected"  fill="#000000" opacity="1.000000" stroke="none" 
 	d="
M790.776461 930.145927 C791.637345 930.181868 791.665053 931.786871 790.805923 931.852506 C789.942532 931.790819 789.968477 930.175826 790.833405 930.141900 z"/><path class="selected"  fill="#000000" opacity="1.000000" stroke="none" 
 	d="
M263.720446 643.039943 C264.109419 644.100499 263.697185 645.399263 262.767781 646.041360 C262.134668 645.254830 261.461846 644.306427 261.702438 643.325824 C261.943030 642.345221 263.692147 642.048728 263.838997 643.047678 z"/><path class="selected"  fill="#000000" opacity="1.000000" stroke="none" 
 	d="
M206.001082 671.515030 C205.070714 671.880854 203.887087 671.271258 203.644628 670.301400 C203.402168 669.331541 204.159686 668.236669 205.152752 668.121644 C205.460953 669.056664 205.769154 669.991687 206.077355 670.926709 z"/><path class="selected"  fill="#000000" opacity="1.000000" stroke="none" 
 	d="
M751.598033 920.203832 C750.908508 919.514307 749.591611 920.831203 750.281136 921.520729 C750.970662 922.210254 752.287558 920.893358 751.598033 920.203832 z"/><path class="selected"  fill="#000000" opacity="1.000000" stroke="none" 
 	d="
M207.598033 572.203832 C206.908508 571.514307 205.591611 572.831203 206.281136 573.520729 C206.970662 574.210254 208.287558 572.893358 207.598033 572.203832 z"/><path class="selected"  fill="#000000" opacity="1.000000" stroke="none" 
 	d="
M763.433883 521.680959 C731.392069 523.687803 698.063670 526.065404 670.209425 542.029311 C642.355180 557.993217 621.966191 591.901185 632.163985 622.343102 C662.067244 711.608733 661.490661 810.780807 630.551482 899.692702 C626.798208 910.478726 622.045964 921.833351 612.415393 927.971548 C602.784822 934.109746 587.061538 931.553774 583.768936 920.618320 C618.416315 805.095857 613.915124 678.207435 571.169136 565.430395 C539.154060 574.209986 507.138983 582.989578 475.123906 591.769169 C469.190085 601.394521 473.607048 615.790446 483.918104 620.431538 C497.367874 675.313751 504.314152 731.786755 504.565287 788.292423 C504.597975 795.647166 504.163971 803.865331 498.836107 808.935555 C491.283961 816.122502 477.860322 812.174094 471.701384 803.762519 C465.542445 795.350945 464.641326 784.321351 463.958545 773.918422 C462.282309 748.379139 460.606074 722.839857 458.929838 697.300574 C457.590276 676.890865 456.116393 655.937172 447.473128 637.399517 C438.829864 618.861862 421.271532 603.013488 400.822977 602.558214 C380.374422 602.102939 360.183597 622.170539 365.455423 641.933093 C374.550014 676.026081 383.644604 710.119069 392.739194 744.212056 C403.846547 785.850307 413.411615 835.161264 385.530151 868.020679 C294.263562 851.551516 199.975835 851.979933 108.862674 869.277779 C95.379603 857.556539 91.086662 836.488994 98.908232 820.426499 C68.340136 822.228459 38.332521 832.725859 13.307069 850.371886 C-10.694636 837.693496 2.291884 801.429298 16.965756 778.592904 C49.509712 727.945992 76.239394 673.566276 96.462106 616.863008 C97.076108 616.016073 97.597488 615.106423 98.117575 614.198786 C135.022384 549.793795 171.927192 485.388805 208.832001 420.983814 C205.602270 419.972606 206.278210 426.756533 209.662352 426.720601 C213.046494 426.684670 215.287366 423.383174 217.773345 421.086739 C231.331515 408.562309 251.779038 425.135188 262.384179 440.242025 C289.514711 478.889007 316.645246 517.535986 343.775781 556.182965 C374.930576 552.798075 411.937497 545.171054 423.334449 515.978791 C432.356741 492.869009 420.433231 467.574184 412.152737 444.188350 C395.277308 396.528632 393.516958 343.641783 407.185820 294.965392 C447.974085 333.490953 467.897853 392.903226 458.583004 448.230750 C454.084787 474.948869 469.100067 503.766242 493.575170 515.387824 C518.050272 527.009406 549.872212 520.431882 567.734196 500.059319 C589.616469 475.101398 588.430068 437.987892 584.930455 404.980553 C576.131087 321.987459 560.499887 239.719730 538.246905 159.282877 C534.167176 144.536065 530.133621 127.699293 538.370836 114.805072 C546.608051 101.910851 572.328641 103.648677 572.293848 118.949378 C572.124251 193.528406 592.209673 268.055959 629.832889 332.449698 C637.414619 376.879384 639.055139 422.319116 634.697078 467.179865 C639.467786 472.792839 644.238493 478.405812 649.009201 484.018786 C671.857040 466.563151 705.452884 476.022161 732.219439 465.520996 C759.018848 455.006943 774.908189 422.444944 766.704681 394.850449 C751.588353 292.976487 797.687536 187.892083 774.933882 87.447677 C770.530199 88.675647 773.777540 96.511607 778.307409 95.894662 C782.837278 95.277717 785.333703 90.294083 786.262889 85.817818 C788.944480 72.899472 785.126310 59.647610 783.723958 46.528599 C782.321607 33.409588 784.300188 18.250551 794.981737 10.505905 C805.663287 2.761258 825.329636 10.990286 822.541608 23.886097 C792.285669 163.832561 843.403517 312.664848 808.449669 451.512472 C820.360844 455.548561 830.036155 465.650978 833.554271 477.725288 C854.879276 462.033846 883.234060 456.307826 908.977124 462.494250 C929.359584 467.392446 948.221737 447.493756 953.003813 427.083741 C957.785890 406.673726 953.647315 385.266311 955.523906 364.387724 C959.258242 322.840187 986.187563 286.969100 995.738870 246.362259 C1009.271215 188.830256 988.313397 121.955642 1021.832998 73.278214 C1057.544258 194.644966 1012.877255 322.890382 990.892418 447.477097 C990.073098 452.120132 989.307088 457.030685 990.969604 461.442612 C993.901355 469.222794 1002.952880 472.445011 1010.945740 474.734244 C1028.576329 479.783816 1046.206917 484.833388 1063.837506 489.882960 C1076.727477 493.574773 1096.470551 492.647093 1096.688932 479.240634 C1098.387489 374.965409 1124.533958 271.166109 1172.436428 178.529394 C1178.304467 167.181422 1194.310302 155.159148 1201.158983 165.943671 C1179.851332 253.050826 1158.543680 340.157980 1137.236029 427.265134 C1133.464718 442.682511 1129.953607 460.018032 1138.211705 473.572445 C1149.462271 492.038536 1177.780172 492.799925 1195.809290 480.861641 C1213.838408 468.923358 1224.038872 448.510446 1233.439547 429.037413 C1257.258032 379.698590 1281.076518 330.359769 1304.895005 281.020948 C1326.382994 297.168179 1316.951816 330.840338 1305.522533 355.168065 C1282.012126 405.210993 1258.501718 455.253920 1234.991311 505.296847 C1262.102534 521.073785 1297.237202 505.028717 1319.415194 482.846138 C1341.593186 460.663558 1357.928655 432.156999 1384.239496 415.078656 C1401.449738 427.098232 1392.706456 454.730095 1378.544153 470.224991 C1364.381851 485.719887 1345.148255 500.540421 1344.929549 521.531247 C1371.804179 568.261991 1441.350294 570.092994 1489.299012 545.457073 C1537.247730 520.821153 1573.129799 477.872390 1618.174937 448.259156 C1635.725305 436.721326 1662.142617 428.532229 1675.290453 444.911219 C1690.512380 463.874018 1669.845077 490.219974 1650.846155 505.396791 C1662.124746 505.337738 1674.002858 505.428489 1683.790716 511.032767 C1693.578573 516.637046 1699.997879 529.804133 1694.345317 539.564187 C1668.756011 540.979130 1643.644826 550.128950 1623.143685 565.508087 C1644.046606 572.525153 1664.949527 579.542220 1685.852448 586.559287 C1671.677681 602.239655 1649.539820 610.316492 1628.597728 607.448252 C1634.933311 618.641558 1641.268894 629.834863 1647.604477 641.028169 C1634.496251 643.661491 1621.388024 646.294813 1608.279798 648.928135 C1619.103647 661.629374 1631.704180 672.814363 1645.599535 682.055375 C1623.231125 689.479932 1597.886074 687.436689 1576.995897 676.524753 C1593.416830 699.820958 1613.813496 720.307182 1637.037535 736.830021 C1621.354522 740.597817 1605.671509 744.365612 1589.988496 748.133408 C1603.929773 769.695144 1602.063875 797.459502 1599.695272 823.026225 C1597.501195 846.709114 1590.327835 876.197022 1566.939899 880.521094 C1577.375454 886.876109 1566.778842 905.098422 1554.601100 904.103626 C1542.423358 903.108830 1533.956463 891.935158 1527.335178 881.666487 C1484.861142 815.795309 1450.201511 744.890183 1424.314341 670.911062 C1416.259220 647.891520 1408.562677 623.737797 1391.790678 606.032307 C1375.018680 588.326818 1345.964530 579.458207 1325.831000 593.221393 C1309.709021 604.242304 1304.423871 625.411917 1302.255796 644.820114 C1300.087720 664.228311 1299.447679 684.896286 1288.647120 701.166706 C1277.846561 717.437127 1252.036873 725.504862 1238.781134 711.163870 C1259.343173 664.052121 1275.425178 614.986257 1286.739632 564.843486 C1272.176264 558.078045 1257.001953 551.173392 1240.944348 551.300645 C1224.886743 551.427898 1207.694596 560.768437 1203.964477 576.387306 C1189.119785 638.545460 1174.275093 700.703613 1159.430401 762.861767 C1155.090458 781.034111 1135.727451 803.838417 1123.335141 789.856292 C1133.916426 708.045252 1150.812598 627.051748 1173.823814 547.833734 C1153.148228 544.513906 1132.472642 541.194078 1111.797056 537.874250 C1065.906426 606.405163 1038.609916 687.259555 1033.572178 769.582439 C1032.722083 783.474038 1028.241270 801.872510 1014.324170 801.988639 C998.999851 802.116511 995.650291 780.469903 997.905217 765.311856 C1009.830932 685.144890 1032.217592 606.540284 1064.318663 532.119278 C1034.797689 511.528505 991.407838 520.922813 965.896296 546.312361 C940.384755 571.701908 930.154116 608.982404 928.409090 644.932686 C926.664064 680.882968 932.344509 716.747881 933.713293 752.714453 C935.300789 794.427965 931.049542 836.359531 921.122130 876.905600 C917.311361 892.469748 899.681621 911.229586 889.567657 898.800894 C889.957483 771.571881 901.918068 644.380614 925.253607 519.309330 C880.703029 510.507047 832.538015 522.074751 796.844058 550.149216 C820.055521 690.579760 815.307077 835.574750 782.957278 974.185717 C766.530935 976.814528 751.585637 961.699648 747.985305 945.458558 C744.384972 929.217467 748.946642 912.425529 753.014157 896.295100 C783.804306 774.191615 787.389168 645.307163 763.433884 521.680959 M1251.799069 398.063359 C1250.633816 397.624619 1249.642352 399.943423 1250.887145 399.971690 C1251.498191 398.711606 1252.550866 397.671083 1253.817960 397.074710 C1253.542063 395.891080 1251.263038 396.880639 1251.939493 397.890345 M817.738506 463.994889 C818.177246 462.829637 815.858442 461.838173 815.830175 463.082965 C817.090260 463.694012 818.130783 464.746686 818.727155 466.013781 C819.910785 465.737884 818.921227 463.458858 817.911520 464.135314 M300.029296 498.049716 C299.271939 498.825065 300.911377 500.193075 301.538596 499.309134 C299.965712 497.212471 299.159448 494.553395 299.303055 491.936269 C297.102452 493.295648 297.282174 497.156770 299.599538 498.305852 M499.783236 758.117934 C499.848173 756.981209 498.192248 755.613036 498.136290 756.750238 C499.652186 758.852742 500.431383 761.475786 500.309170 764.064904 C502.504964 762.697772 502.321626 758.842056 500.006019 757.689440 M634.197878 880.465972 C636.482877 878.164799 636.700656 873.899636 634.223218 871.807050 C634.432635 875.109209 633.749100 878.463739 632.264301 881.420679 C632.979589 882.157915 634.332941 880.669994 633.531401 880.027584 M437.701046 333.941228 C438.298468 332.825825 435.863604 331.901674 435.755164 333.162340 C437.886277 333.747013 438.303682 336.491909 438.902224 338.619169 C439.500766 340.746428 442.067374 342.958074 443.603271 341.369205 C442.490705 338.371041 440.602178 335.664557 438.172118 333.585712 M1113.145972 331.906736 C1111.608499 333.205814 1111.431284 335.486633 1111.528597 337.497095 C1111.633570 339.665643 1111.921128 341.825323 1112.387233 343.945786 C1116.154817 341.539547 1115.518987 335.695334 1113.145973 331.906736 M1563.800362 493.612363 C1560.057195 496.445015 1556.692855 499.777618 1553.824852 503.493769 C1559.027990 503.535660 1563.792937 498.815662 1563.800364 493.612364 M186.831317 683.004350 C187.101928 681.417774 184.590704 680.639872 183.369188 681.687896 C182.147671 682.735919 181.985928 684.535057 181.912857 686.142886 C181.635988 692.235488 181.359111 698.328086 181.082235 704.420685 C180.813097 710.342995 182.049427 718.208034 187.923686 719.007585 C185.708939 722.082328 187.276617 727.102411 190.847520 728.370404 C191.418801 726.167210 191.990082 723.964016 192.561363 721.760822 C201.328163 712.530513 204.872574 698.640972 201.600617 686.338546 C204.543407 687.263106 203.692493 691.524941 203.641479 694.609130 C203.590465 697.693320 208.907641 700.222832 208.842521 697.138908 C208.502785 681.049616 209.867547 664.924863 212.906602 649.121544 C216.205215 647.345705 219.503828 645.569866 222.802440 643.794026 C223.269794 645.301135 223.737148 646.808243 224.204502 648.315351 C234.038925 645.266962 244.525141 644.340044 254.741814 645.616038 C263.761837 650.297592 276.419939 644.945141 279.345007 635.212631 C279.848038 633.538908 280.197085 631.632278 281.603695 630.595053 C283.010305 629.557827 285.708444 630.670645 285.144280 632.324763 C286.715516 630.030678 285.348097 626.672204 283.022341 625.148240 C280.696585 623.624275 277.771132 623.440069 274.993981 623.302095 C267.386758 622.924156 259.779535 622.546216 252.172312 622.168276 C241.248747 621.625575 228.937566 620.407026 222.116764 611.857438 C214.380059 602.159807 217.517172 588.165841 219.541128 575.926386 C221.752169 562.555570 222.135936 548.883832 220.678425 535.410039 C217.288641 546.982930 213.898858 558.555821 210.509075 570.128711 C208.629464 566.115970 202.742621 570.318121 200.928127 574.360725 C197.603560 581.767702 194.674455 589.352160 192.157452 597.071017 C191.121380 598.145824 190.085308 599.220630 189.049236 600.295437 C174.177422 601.426879 159.456252 604.522841 145.388504 609.477585 C142.726404 615.096120 144.008986 622.335186 148.439374 626.697109 C152.869763 631.059031 160.127925 632.228723 165.704321 629.479447 C168.351308 629.638369 170.726236 631.859725 171.061489 634.490200 C175.500129 630.952490 183.374865 634.616680 183.527232 640.290629 C181.603319 637.151475 177.524683 635.509683 173.962472 636.440482 C178.287371 639.947457 182.612270 643.454432 186.937168 646.961407 C187.221413 653.059238 187.505658 659.157068 187.789903 665.254899 C186.583175 664.469494 185.376447 663.684089 184.169718 662.898685 C183.447715 667.945075 182.725712 672.991466 182.003709 678.037857 C182.693246 676.002103 185.839275 675.606598 187.287038 677.195226 C188.734802 678.783854 188.377460 681.511298 186.831318 683.004349 M571.676348 196.011177 C571.748350 199.834782 571.820352 203.658387 571.892355 207.481992 C571.907421 208.282088 571.958174 209.169645 572.528307 209.731187 C574.011262 211.191797 576.281653 208.475063 575.786333 206.453381 C575.291013 204.431699 573.644220 202.692218 573.743462 200.613110 C573.825884 198.886416 575.097008 197.471934 575.697358 195.850870 C576.297707 194.229806 575.644209 191.800474 573.915933 191.836933 C572.151826 191.874146 571.643126 194.246987 571.676346 196.011174 M1105.834646 401.091911 C1103.890094 401.776549 1103.282653 404.740124 1104.801060 406.134560 C1108.981253 402.664406 1108.973527 395.316544 1104.786047 391.855188 C1103.282306 393.264574 1103.894038 396.213475 1105.834309 396.908421 C1105.157247 397.605207 1104.480184 398.301994 1103.803121 398.998781 C1104.480296 399.696491 1105.157471 400.394201 1105.834645 401.091911 M1228.803069 439.998811 C1229.844920 438.924341 1230.886772 437.849871 1231.928623 436.775401 C1228.791040 434.905254 1225.590018 439.092235 1224.308456 442.512684 C1223.984117 443.378326 1223.668284 444.384160 1224.129038 445.185557 C1224.866872 446.468881 1227.033271 445.987152 1227.749910 444.691875 C1228.466550 443.396597 1228.192936 441.801763 1227.899618 440.350805 M1285.805306 332.473268 C1287.661263 332.593892 1288.352561 329.581045 1286.903880 328.414664 C1285.455198 327.248282 1283.209809 327.788550 1281.799362 329.000890 C1282.467241 329.666862 1283.135123 330.332837 1283.803004 330.998812 C1283.136343 331.665489 1282.469683 332.332166 1281.803022 332.998843 C1282.803144 333.999078 1283.803267 334.999312 1284.803389 335.999547 C1285.724548 335.370534 1286.120025 334.072559 1285.706112 333.036766 M1421.753101 667.144949 C1424.087923 668.021378 1424.106727 672.039497 1421.780210 672.937740 C1422.834245 673.975842 1423.888278 675.013942 1424.942312 676.052042 C1425.730527 673.963219 1426.103482 671.718633 1426.033117 669.487149 C1425.996004 668.310143 1425.772539 667.015499 1424.857764 666.273942 C1423.942990 665.532384 1422.196613 665.900304 1422.088826 667.072951 M882.833065 461.842379 C884.232357 462.194970 885.841294 462.403708 887.010238 461.557593 C888.179182 460.711478 888.147592 458.433878 886.733100 458.148307 C885.984235 459.844012 883.589559 459.663901 881.789602 460.107029 C879.989645 460.550157 878.956197 463.746332 880.809513 463.784120 C881.474016 463.189023 882.138519 462.593925 882.803021 461.998826 M1376.794595 429.987413 C1378.124632 429.136342 1378.128632 426.856769 1376.801589 426.001035 C1375.135463 427.667054 1373.469337 429.333073 1371.803211 430.999093 C1372.810486 432.002645 1373.817761 433.006197 1374.825036 434.009749 C1375.500243 432.680876 1376.175450 431.352003 1376.850657 430.023130 M1154.158806 642.805617 C1153.699764 641.771322 1153.240722 640.737026 1152.781680 639.702731 C1151.220712 643.014413 1151.222796 647.023509 1152.787202 650.333566 C1153.933355 648.105761 1154.260528 645.467847 1153.693350 643.027542 M1525.727269 525.184087 C1524.433218 523.999957 1522.209044 524.036780 1520.954899 525.263097 C1519.700755 526.489414 1519.614043 528.712202 1520.768844 530.032493 C1522.113561 528.687952 1523.458280 527.343409 1524.803000 525.998865 M294.983325 489.977349 C295.562521 488.740689 296.156453 487.411357 295.951375 486.061269 C295.746296 484.711181 294.364437 483.457423 293.079900 483.920841 C291.861491 484.360400 291.533524 486.056302 292.097844 487.222182 C292.662165 488.388061 293.812761 489.136806 294.909116 489.826543 M811.616976 78.614458 C811.731920 78.942467 812.176819 78.999036 812.516155 78.923844 C814.868463 78.402613 814.239438 73.992332 811.835209 74.149510 C809.430980 74.306689 809.381506 78.761327 811.781652 78.971863 M1319.892233 487.464711 C1318.315264 485.407130 1314.309119 486.623157 1314.141964 489.210149 C1315.427863 490.563264 1318.151684 489.761181 1318.499058 487.927116 M1210.547086 473.640016 C1209.611325 474.472314 1210.649665 476.250083 1211.898781 476.160221 C1213.147897 476.070358 1214.002868 474.728461 1214.011761 473.476148 C1214.020654 472.223836 1213.415626 471.059378 1212.826029 469.954506 C1212.133260 471.293131 1211.440488 472.631753 1210.747717 473.970376 M572.119163 186.862584 C571.725113 185.842134 571.331064 184.821684 570.937015 183.801234 C569.954149 185.180997 569.179772 186.969101 569.825915 188.535072 C570.472059 190.101044 573.153027 190.565919 573.755217 188.982525 C573.104471 188.321277 572.453724 187.660030 571.802978 186.998782 M809.892421 195.039941 C809.489546 196.088293 809.901439 197.389224 810.834263 198.014676 C811.733489 196.284095 812.632717 194.553512 813.531944 192.822929 C812.356047 191.035743 808.914920 193.116973 809.951719 194.988288 M1122.803676 315.998190 C1121.810283 316.994838 1120.816891 317.991485 1119.823498 318.988133 C1120.470301 320.165481 1122.314951 320.429912 1123.266456 319.481682 C1124.217961 318.533452 1123.959894 316.687902 1122.784784 316.037042 M1049.891288 571.029710 C1049.493816 572.071828 1049.889048 573.360053 1050.802569 573.999953 C1051.801607 573.000339 1052.800643 572.000721 1053.799679 571.001103 C1052.944599 569.673781 1050.665209 569.676746 1049.813585 571.006288 M814.110610 56.866217 C813.727070 55.848375 813.343529 54.830534 812.959989 53.812692 C811.376587 55.448664 811.277892 58.299913 812.744381 60.041456 C813.699971 59.425689 814.125732 58.101741 813.708189 57.044398 M396.625107 787.611559 C395.488774 788.679952 397.424100 790.750987 398.775380 789.972038 C400.126659 789.193089 399.988560 787.000377 398.824999 785.961702 C398.151476 786.640284 397.477952 787.318869 396.804428 787.997455 M1331.860007 472.357632 C1330.184335 472.404466 1328.586046 473.517606 1327.961073 475.073074 C1329.067408 476.940516 1332.653865 474.990947 1331.688342 473.046959 M579.802285 346.999599 C579.122301 347.673117 578.442317 348.346634 577.762333 349.020152 C578.800613 350.183296 580.988722 350.328236 581.775208 348.981992 C582.561693 347.635748 580.511522 345.685179 579.430360 346.808575 M960.885286 354.055380 C962.265149 352.314429 962.232601 349.603785 960.811334 347.896468 C959.377489 349.597997 959.334706 352.316029 960.714284 354.061842 M543.878990 181.009413 C543.453120 182.671841 543.732234 184.502898 544.634072 185.962939 C546.585244 184.583572 546.236298 181.049320 544.053057 180.078154 M1109.727054 356.988273 C1110.152924 355.325845 1109.873810 353.494788 1108.971973 352.034747 C1107.020800 353.414114 1107.369746 356.948366 1109.552987 357.919532 M460.802369 711.999496 C461.795762 711.002848 462.789154 710.006201 463.782547 709.009553 C463.135744 707.832205 461.291094 707.567774 460.339588 708.516004 C459.388083 709.464234 459.646151 711.309784 460.821261 711.960644 M1002.802369 195.999496 C1003.795762 195.002848 1004.789154 194.006201 1005.782547 193.009553 C1005.135744 191.832205 1003.291094 191.567774 1002.339588 192.516004 C1001.388083 193.464234 1001.646151 195.309784 1002.821261 195.960644 M1247.886217 707.039488 C1247.496192 708.099769 1247.908490 709.399240 1248.838450 710.040714 C1249.471108 709.254725 1250.143440 708.307251 1249.903746 707.327156 C1249.664051 706.347060 1247.917626 706.047629 1247.767866 707.045433 M1164.815833 202.010250 C1163.482347 202.850687 1163.474012 205.132326 1164.801322 205.982484 C1166.131774 205.135005 1166.125077 202.849419 1164.789681 202.009750 M1106.790212 439.987436 C1108.123698 439.146999 1108.132033 436.865360 1106.804723 436.015202 C1105.474271 436.862681 1105.480968 439.148267 1106.816364 439.987936 M1247.832746 697.046852 C1247.686171 696.051168 1245.942646 696.347551 1245.703555 697.325154 C1245.464464 698.302756 1246.135973 699.247536 1246.767753 700.030942 C1247.707881 699.404495 1248.120950 698.092237 1247.709161 697.040233 M1215.773299 464.950834 C1215.919874 465.946518 1217.663398 465.650135 1217.902490 464.672532 C1218.141581 463.694930 1217.470071 462.750150 1216.838292 461.966744 C1215.898163 462.593191 1215.485095 463.905449 1215.896883 464.957453 M649.773299 774.950834 C649.919874 775.946518 651.663398 775.650135 651.902490 774.672532 C652.141581 773.694930 651.470071 772.750150 650.838292 771.966744 C649.898163 772.593191 649.485095 773.905449 649.896883 774.957453 M646.077901 688.930366 C645.768180 688.000421 645.458460 687.070477 645.148739 686.140532 C643.183654 686.359833 644.107907 690.213206 645.958667 689.517256 M1576.815833 682.010250 C1575.482347 682.850687 1575.474012 685.132326 1576.801322 685.982484 C1578.131774 685.135005 1578.125077 682.849419 1576.789681 682.009750 M50.790212 723.987436 C52.123698 723.146999 52.132033 720.865360 50.804723 720.015202 C49.474271 720.862681 49.480968 723.148267 50.816364 723.987936 M807.886217 813.039488 C807.496192 814.099769 807.908490 815.399240 808.838450 816.040714 C809.471108 815.254725 810.143440 814.307251 809.903746 813.327156 C809.664051 812.347060 807.917626 812.047629 807.767866 813.045433 M928.815833 736.010250 C927.482347 736.850687 927.474012 739.132326 928.801322 739.982484 C930.131774 739.135005 930.125077 736.849419 928.789681 736.009750 M1026.077901 658.930366 C1025.768180 658.000421 1025.458460 657.070477 1025.148739 656.140532 C1023.183654 656.359833 1024.107907 660.213206 1025.958667 659.517256 M634.790212 479.987436 C636.123698 479.146999 636.132033 476.865360 634.804723 476.015202 C633.474271 476.862681 633.480968 479.148267 634.816364 479.987936 M1004.815833 736.010250 C1003.482347 736.850687 1003.474012 739.132326 1004.801322 739.982484 C1006.131774 739.135005 1006.125077 736.849419 1004.789681 736.009750 M1167.885599 289.039943 C1167.496626 290.100499 1167.908860 291.399263 1168.838264 292.041360 C1169.471376 291.254830 1170.144198 290.306427 1169.903606 289.325824 C1169.663015 288.345221 1167.913898 288.048728 1167.767047 289.047678 M971.832746 325.046852 C971.686171 324.051168 969.942646 324.347551 969.703555 325.325154 C969.464464 326.302756 970.135973 327.247536 970.767753 328.030942 C971.707881 327.404495 972.120950 326.092237 971.709161 325.040233 M1288.286835 509.800784 C1287.921012 510.731152 1288.530608 511.914778 1289.500466 512.157238 C1290.470324 512.399697 1291.565196 511.642180 1291.680221 510.649113 C1290.745201 510.340912 1289.810179 510.032711 1288.875156 509.724510 M1285.791615 609.011654 C1284.951178 607.678167 1282.669539 607.669832 1281.819382 608.997143 C1282.666860 610.327595 1284.952446 610.320898 1285.792116 608.985501 M1657.319209 580.196902 C1657.685033 579.266534 1657.075437 578.082908 1656.105579 577.840448 C1655.135721 577.597989 1654.040848 578.355506 1653.925823 579.348573 C1654.860844 579.656774 1655.795866 579.964975 1656.730889 580.273176 M1355.319209 538.196902 C1355.685033 537.266534 1355.075437 536.082908 1354.105579 535.840448 C1353.135721 535.597989 1352.040848 536.355506 1351.925823 537.348573 C1352.860844 537.656774 1353.795866 537.964975 1354.730889 538.273176 M375.655938 551.025404 C375.619997 550.164520 374.014994 550.136812 373.949359 550.995943 C374.011046 551.859333 375.626039 551.833388 375.659965 550.968460 M363.950107 554.972282 C363.986048 555.833166 365.591050 555.860874 365.656685 555.001743 C365.594998 554.138353 363.980006 554.164298 363.946079 555.029226 M919.655938 575.025404 C919.619997 574.164520 918.014994 574.136812 917.949359 574.995943 C918.011046 575.859333 919.626039 575.833388 919.659965 574.968460 M1172.829584 582.145927 C1171.968700 582.181868 1171.940991 583.786871 1172.800122 583.852506 C1173.663512 583.790819 1173.637567 582.175826 1172.772640 582.141900 M1289.655938 593.025404 C1289.619997 592.164520 1288.014994 592.136812 1287.949359 592.995943 C1288.011046 593.859333 1289.626039 593.833388 1289.659965 592.968460 M423.950107 524.972282 C423.986048 525.833166 425.591050 525.860874 425.656685 525.001743 C425.594998 524.138353 423.980006 524.164298 423.946079 525.029226 M1166.776461 595.851759 C1167.637345 595.815818 1167.665053 594.210815 1166.805923 594.145180 C1165.942532 594.206867 1165.968477 595.821860 1166.833405 595.855786 M1288.829584 598.145927 C1287.968700 598.181868 1287.940991 599.786871 1288.800122 599.852506 C1289.663512 599.790819 1289.637567 598.175826 1288.772640 598.141900 M1067.950107 492.972282 C1067.986048 493.833166 1069.591050 493.860874 1069.656685 493.001743 C1069.594998 492.138353 1067.980006 492.164298 1067.946079 493.029226 M1157.655938 637.025404 C1157.619997 636.164520 1156.014994 636.136812 1155.949359 636.995943 C1156.011046 637.859333 1157.626039 637.833388 1157.659965 636.968460 M1604.829584 648.145927 C1603.968700 648.181868 1603.940991 649.786871 1604.800122 649.852506 C1605.663512 649.790819 1605.637567 648.175826 1604.772640 648.141900 M216.776461 651.851759 C217.637345 651.815818 217.665053 650.210815 216.805923 650.145180 C215.942532 650.206867 215.968477 651.821860 216.833405 651.855786 M843.655938 477.025404 C843.619997 476.164520 842.014994 476.136812 841.949359 476.995943 C842.011046 477.859333 843.626039 477.833388 843.659965 476.968460 M1259.950107 656.972282 C1259.986048 657.833166 1261.591050 657.860874 1261.656685 657.001743 C1261.594998 656.138353 1259.980006 656.164298 1259.946079 657.029226 M1419.950107 658.972282 C1419.986048 659.833166 1421.591050 659.860874 1421.656685 659.001743 C1421.594998 658.138353 1419.980006 658.164298 1419.946079 659.029226 M1595.950107 468.972282 C1595.986048 469.833166 1597.591050 469.860874 1597.656685 469.001743 C1597.594998 468.138353 1595.980006 468.164298 1595.946079 469.029226 M1252.829584 678.145927 C1251.968700 678.181868 1251.940991 679.786871 1252.800122 679.852506 C1253.663512 679.790819 1253.637567 678.175826 1252.772640 678.141900 M901.950107 682.972282 C901.986048 683.833166 903.591050 683.860874 903.656685 683.001743 C903.594998 682.138353 901.980006 682.164298 901.946079 683.029226 M820.829584 468.145927 C819.968700 468.181868 819.940991 469.786871 820.800122 469.852506 C821.663512 469.790819 821.637567 468.175826 820.772640 468.141900 M1140.776461 689.851759 C1141.637345 689.815818 1141.665053 688.210815 1140.805923 688.145180 C1139.942532 688.206867 1139.968477 689.821860 1140.833405 689.855786 M742.776461 459.851759 C743.637345 459.815818 743.665053 458.210815 742.805923 458.145180 C741.942532 458.206867 741.968477 459.821860 742.833405 459.855786 M1247.950107 702.972282 C1247.986048 703.833166 1249.591050 703.860874 1249.656685 703.001743 C1249.594998 702.138353 1247.980006 702.164298 1247.946079 703.029226 M457.950107 438.972282 C457.986048 439.833166 459.591050 439.860874 459.656685 439.001743 C459.594998 438.138353 457.980006 438.164298 457.946079 439.029226 M59.655938 709.025404 C59.619997 708.164520 58.014994 708.136812 57.949359 708.995943 C58.011046 709.859333 59.626039 709.833388 59.659965 708.968460 M1104.776461 425.851759 C1105.637345 425.815818 1105.665053 424.210815 1104.805923 424.145180 C1103.942532 424.206867 1103.968477 425.821860 1104.833405 425.855786 M233.950107 420.972282 C233.986048 421.833166 235.591050 421.860874 235.656685 421.001743 C235.594998 420.138353 233.980006 420.164298 233.946079 421.029226 M956.829584 416.145927 C955.968700 416.181868 955.940991 417.786871 956.800122 417.852506 C957.663512 417.790819 957.637567 416.175826 956.772640 416.141900 M1241.950107 412.972282 C1241.986048 413.833166 1243.591050 413.860874 1243.656685 413.001743 C1243.594998 412.138353 1241.980006 412.164298 1241.946079 413.029226 M1456.776461 739.851759 C1457.637345 739.815818 1457.665053 738.210815 1456.805923 738.145180 C1455.942532 738.206867 1455.968477 739.821860 1456.833405 739.855786 M1597.655938 745.025404 C1597.619997 744.164520 1596.014994 744.136812 1595.949359 744.995943 C1596.011046 745.859333 1597.626039 745.833388 1597.659965 744.968460 M406.776461 393.851759 C407.637345 393.815818 407.665053 392.210815 406.805923 392.145180 C405.942532 392.206867 405.968477 393.821860 406.833405 393.855786 M1260.776461 387.851759 C1261.637345 387.815818 1261.665053 386.210815 1260.805923 386.145180 C1259.942532 386.206867 1259.968477 387.821860 1260.833405 387.855786 M1131.950107 752.972282 C1131.986048 753.833166 1133.591050 753.860874 1133.656685 753.001743 C1133.594998 752.138353 1131.980006 752.164298 1131.946079 753.029226 M465.950107 764.972282 C465.986048 765.833166 467.591050 765.860874 467.656685 765.001743 C467.594998 764.138353 465.980006 764.164298 465.946079 765.029226 M1151.950107 348.972282 C1151.986048 349.833166 1153.591050 349.860874 1153.656685 349.001743 C1153.594998 348.138353 1151.980006 348.164298 1151.946079 349.029226 M432.829584 328.145927 C431.968700 328.181868 431.940991 329.786871 432.800122 329.852506 C433.663512 329.790819 433.637567 328.175826 432.772640 328.141900 M0.829584 818.145927 C-0.031300 818.181868 -0.059009 819.786871 0.800122 819.852506 C1.663512 819.790819 1.637567 818.175826 0.772640 818.141900 M62.829584 824.145927 C61.968700 824.181868 61.940991 825.786871 62.800122 825.852506 C63.663512 825.790819 63.637567 824.175826 62.772640 824.141900 M1498.776461 831.851759 C1499.637345 831.815818 1499.665053 830.210815 1498.805923 830.145180 C1497.942532 830.206867 1497.968477 831.821860 1498.833405 831.855786 M587.804179 253.551598 C588.441296 253.504984 589.078413 253.458370 589.715531 253.411756 C589.958214 252.483966 588.212825 251.986235 587.929645 252.902477 M1503.950107 844.972282 C1503.986048 845.833166 1505.591050 845.860874 1505.656685 845.001743 C1505.594998 844.138353 1503.980006 844.164298 1503.946079 845.029226 M1148.829584 250.145927 C1147.968700 250.181868 1147.940991 251.786871 1148.800122 251.852506 C1149.663512 251.790819 1149.637567 250.175826 1148.772640 250.141900 M1032.776461 207.851759 C1033.637345 207.815818 1033.665053 206.210815 1032.805923 206.145180 C1031.942532 206.206867 1031.968477 207.821860 1032.833405 207.855786 M1007.681858 158.914156 C1007.412721 157.979088 1005.627179 158.490340 1005.893728 159.426149 C1006.530056 159.464083 1007.166384 159.502015 1007.802712 159.539947 M808.776461 125.851759 C809.637345 125.815818 809.665053 124.210815 808.805923 124.145180 C807.942532 124.206867 807.968477 125.821860 808.833405 125.855786 M626.829584 890.145927 C625.968700 890.181868 625.940991 891.786871 626.800122 891.852506 C627.663512 891.790819 627.637567 890.175826 626.772640 890.141900 M816.829584 22.145927 C815.968700 22.181868 815.940991 23.786871 816.800122 23.852506 C817.663512 23.790819 817.637567 22.175826 816.772640 22.141900 z"/></svg>